<svg width="145" height="32" viewBox="0 0 145 32" fill="none" xmlns="http://www.w3.org/2000/svg">
<path fill-rule="evenodd" clip-rule="evenodd" d="M67.5881 7.49646L71.9187 6.31909V9.94932L67.5881 11.1267V7.49646Z" fill="#FFA500"/>
<path d="M0.498703 7.4108L5.22312 6.13531V23.894H0.498703V7.4108ZM19.7901 23.894H15.4594V17.4185C15.4594 15.8486 15.5578 13.9845 13.4909 13.9845C11.4239 13.9845 11.0302 15.1618 11.0302 16.7317V23.894H6.6995V11.4335L10.8334 10.3542V12.709C11.282 11.9922 11.9055 11.4004 12.6455 10.9887C13.3856 10.5769 14.2182 10.3587 15.0657 10.3542C18.5106 10.3542 19.7901 12.3165 19.7901 15.4562V23.894ZM23.924 23.894L19.4948 10.7467H24.0224L26.483 19.577L28.9436 10.7467H33.2744L28.8452 23.894H23.924ZM41.9358 15.4562C41.8067 14.866 41.486 14.3347 41.0234 13.9445C40.5608 13.5543 39.982 13.3269 39.3767 13.2977C37.4082 13.2977 36.5224 15.0637 36.5224 16.9279L41.9358 15.4562ZM39.7704 21.4412C40.7013 21.4413 41.6198 21.2292 42.4557 20.8211C43.2916 20.4129 44.0228 19.8196 44.5933 19.0864L45.7744 22.2261C43.9889 23.5699 41.8109 24.2936 39.5736 24.2865C35.3413 24.2865 32.2901 21.8336 32.2901 17.3204C32.2764 16.3935 32.4512 15.4734 32.8037 14.6156C33.1563 13.7578 33.6794 12.98 34.3415 12.3292C35.0037 11.6783 35.7911 11.1677 36.6565 10.8283C37.5219 10.4889 38.4472 10.3276 39.3767 10.3542C43.5106 10.3542 46.0697 13.1014 46.0697 17.2222L36.9161 19.7732C37.1704 20.3036 37.5782 20.7459 38.0869 21.0431C38.5956 21.3404 39.182 21.479 39.7704 21.4412ZM54.4358 15.7505C55.431 15.8797 56.3965 16.1784 57.2902 16.6336C57.7821 16.9579 58.1902 17.3936 58.481 17.9052C58.7718 18.4167 58.9371 18.9896 58.9634 19.577C58.9634 23.1091 55.7154 24.2865 52.5658 24.2865C49.4161 24.2865 46.7586 23.3053 46.2665 20.3619L49.9083 19.2826C49.9331 19.6051 50.0217 19.9195 50.1689 20.2078C50.3161 20.496 50.519 20.7523 50.766 20.9621C51.013 21.1718 51.2992 21.3308 51.6081 21.4299C51.9169 21.5289 52.2424 21.5661 52.5658 21.5393C53.4516 21.5393 54.7311 21.1468 54.7311 20.0676C54.7311 18.9883 53.3532 18.8902 52.5658 18.694L50.8925 18.3015C48.7272 17.909 46.5618 17.2222 46.5618 14.3769C46.5618 11.5316 50.0067 10.3542 52.5658 10.3542C55.1248 10.3542 58.176 11.1391 58.5697 13.7882L54.8295 14.7694C54.6327 13.592 53.8453 13.1996 52.4673 13.1996C51.0894 13.1996 50.8925 13.3958 50.8925 14.1807C50.8925 14.9656 52.3689 15.3581 53.0579 15.5543L54.4358 15.7505ZM63.9831 13.592V19.4789C63.9831 20.0676 64.18 20.5581 64.7705 20.6562C65.5535 20.8236 66.3664 20.7899 67.1327 20.5581L66.2469 23.894H64.2784C60.6366 23.894 59.6524 22.9129 59.6524 19.2826V8.39195L63.9831 7.21457V10.7467H67.1327L66.3453 13.592H63.9831ZM67.7233 11.5316L72.054 10.3542V23.894H67.7233V11.5316ZM82.2902 17.4185C82.2902 15.8486 82.3886 13.9845 80.2233 13.9845C79.8737 13.9819 79.5277 14.0537 79.2081 14.1949C78.8885 14.3362 78.6028 14.5437 78.37 14.8036C78.1372 15.0635 77.9626 15.3699 77.8579 15.7024C77.7532 16.0348 77.7207 16.3857 77.7626 16.7317V23.894H73.5304V11.4335L77.6642 10.3542V12.709C78.1129 11.9922 78.7363 11.4004 79.4764 10.9887C80.2164 10.5769 81.049 10.3587 81.8965 10.3542C85.3414 10.3542 86.6209 12.3165 86.6209 15.4562V23.894H82.2902V17.4185ZM94.3966 13.6901C92.428 13.6901 91.8375 15.3581 91.8375 16.9279C91.8375 18.4977 92.5265 20.0676 94.2981 20.0676C96.0698 20.0676 96.9556 18.694 96.9556 17.026C96.9556 15.3581 96.2666 13.6901 94.3966 13.6901ZM94.1997 28.5054C91.6406 28.5054 88.8847 27.8186 87.9989 24.9733L91.8375 23.9921C92.0236 24.5173 92.3711 24.9706 92.8305 25.2877C93.2899 25.6047 93.8379 25.7694 94.3966 25.7582C96.1682 25.7582 96.8572 24.2865 96.8572 22.6185V21.343C96.4927 21.9526 95.9729 22.4552 95.3506 22.7998C94.7283 23.1445 94.0256 23.3189 93.3139 23.3053C89.3769 23.3053 87.5068 20.5581 87.5068 16.8298C87.5068 13.1014 89.5737 10.3542 93.3139 10.3542C94.0353 10.3506 94.7446 10.5398 95.3677 10.9022C95.9909 11.2645 96.5053 11.7868 96.8572 12.4146V11.4335L100.991 10.3542V22.3242C100.991 26.445 97.9399 28.5054 94.1997 28.5054Z" fill="white"/>
<path d="M103.014 6.29755H109.429C110.346 6.29755 111.226 6.38541 112.071 6.56112C112.934 6.73684 113.688 7.03556 114.335 7.45728C114.982 7.86143 115.494 8.41494 115.872 9.11781C116.267 9.80311 116.465 10.6641 116.465 11.7009C116.465 12.8782 116.258 13.827 115.845 14.5475C115.431 15.2679 114.874 15.8302 114.174 16.2344C113.473 16.6209 112.655 16.8845 111.721 17.0251C110.804 17.1657 109.843 17.236 108.836 17.236H106.41V24.9587H103.014V6.29755ZM108.459 14.3893C108.944 14.3893 109.447 14.3718 109.968 14.3366C110.49 14.3015 110.966 14.196 111.397 14.0203C111.846 13.8446 112.206 13.581 112.475 13.2296C112.763 12.8782 112.907 12.3862 112.907 11.7536C112.907 11.1737 112.781 10.7168 112.529 10.383C112.278 10.0315 111.954 9.76797 111.559 9.59225C111.163 9.39896 110.723 9.27596 110.238 9.22324C109.753 9.17053 109.285 9.14417 108.836 9.14417H106.41V14.3893H108.459Z" fill="url(#paint0_linear_149_11264)"/>
<path d="M117.427 12.3071H120.662V14.3103H120.716C121.075 13.5722 121.587 13.0012 122.252 12.597C122.917 12.1929 123.681 11.9908 124.544 11.9908C124.741 11.9908 124.93 12.0084 125.11 12.0435C125.307 12.0786 125.703 12.1753 125.703 12.1753L124.139 14.9956C124.139 14.9956 122.774 15.1361 122.306 15.4173C121.857 15.6809 121.507 15.9884 121.255 16.3398C121.021 16.6912 120.86 17.0427 120.77 17.3941C120.698 17.7455 120.662 18.0091 120.662 18.1848V24.9587H117.427V12.3071Z" fill="url(#paint1_linear_149_11264)"/>
<path d="M124.593 18.6329C124.593 17.6313 124.773 16.7264 125.132 15.9181C125.51 15.0922 126.013 14.3893 126.642 13.8095C127.271 13.2296 128.017 12.7815 128.879 12.4652C129.742 12.1489 130.658 11.9908 131.629 11.9908C132.599 11.9908 133.516 12.1489 134.378 12.4652C135.241 12.7815 135.987 13.2296 136.616 13.8095C137.245 14.3893 137.739 15.0922 138.098 15.9181C138.476 16.7264 138.664 17.6313 138.664 18.6329C138.664 19.6345 138.476 20.5482 138.098 21.3741C137.739 22.1824 137.245 22.8765 136.616 23.4564C135.987 24.0362 135.241 24.4843 134.378 24.8006C133.516 25.1169 132.599 25.275 131.629 25.275C130.658 25.275 129.742 25.1169 128.879 24.8006C128.017 24.4843 127.271 24.0362 126.642 23.4564C126.013 22.8765 125.51 22.1824 125.132 21.3741C124.773 20.5482 124.593 19.6345 124.593 18.6329ZM127.828 18.6329C127.828 19.1249 127.909 19.5994 128.071 20.0562C128.25 20.5131 128.502 20.9172 128.825 21.2687C129.167 21.6201 129.571 21.9013 130.038 22.1121C130.506 22.323 131.036 22.4284 131.629 22.4284C132.222 22.4284 132.752 22.323 133.219 22.1121C133.687 21.9013 134.082 21.6201 134.405 21.2687C134.747 20.9172 134.998 20.5131 135.16 20.0562C135.34 19.5994 135.43 19.1249 135.43 18.6329C135.43 18.1409 135.34 17.6665 135.16 17.2096C134.998 16.7527 134.747 16.3486 134.405 15.9972C134.082 15.6457 133.687 15.3646 133.219 15.1537C132.752 14.9428 132.222 14.8374 131.629 14.8374C131.036 14.8374 130.506 14.9428 130.038 15.1537C129.571 15.3646 129.167 15.6457 128.825 15.9972C128.502 16.3486 128.25 16.7527 128.071 17.2096C127.909 17.6665 127.828 18.1409 127.828 18.6329Z" fill="url(#paint2_linear_149_11264)"/>
<defs>
<linearGradient id="paint0_linear_149_11264" x1="103.014" y1="9.88218" x2="117.726" y2="32.1472" gradientUnits="userSpaceOnUse">
<stop stop-color="#FF6B00"/>
<stop offset="1" stop-color="#FFA500"/>
</linearGradient>
<linearGradient id="paint1_linear_149_11264" x1="103.014" y1="9.88218" x2="117.726" y2="32.1472" gradientUnits="userSpaceOnUse">
<stop stop-color="#FF6B00"/>
<stop offset="1" stop-color="#FFA500"/>
</linearGradient>
<linearGradient id="paint2_linear_149_11264" x1="103.014" y1="9.88218" x2="117.726" y2="32.1472" gradientUnits="userSpaceOnUse">
<stop stop-color="#FF6B00"/>
<stop offset="1" stop-color="#FFA500"/>
</linearGradient>
</defs>
</svg>
