<svg width="129" height="87" viewBox="0 0 129 87" fill="none" xmlns="http://www.w3.org/2000/svg">
<path opacity="0.7" d="M69.1671 -0.000163207L129.001 41.5L129.001 71.0001L28.0013 -6.78797e-05L69.1671 -0.000163207Z" fill="url(#paint0_linear_2012_1764)"/>
<path opacity="0.7" d="M1.52588e-05 -9.15527e-05L129 89.9999L129 70.9999L28 -9.22365e-05L1.52588e-05 -9.15527e-05Z" fill="url(#paint1_linear_2012_1764)"/>
<path d="M33.4007 12.2136L30.8577 10.4329L31.8249 9.02268L33.9599 10.5177C34.3362 10.7811 34.6778 10.9494 34.9847 11.0224C35.2948 11.0909 35.5738 11.0735 35.8218 10.9702C36.0775 10.8655 36.3006 10.6771 36.491 10.4051C36.7069 10.0969 36.8225 9.80632 36.8379 9.5334C36.8579 9.26366 36.7757 9.00003 36.5912 8.7425C36.4113 8.48814 36.1309 8.22765 35.7501 7.96103L34.3358 6.97071L28.5225 15.273L26.4826 13.8447L33.4148 3.94447L36.869 6.36312C37.4447 6.76623 37.9211 7.18089 38.2982 7.60709C38.6799 8.03647 38.9516 8.47331 39.1134 8.91762C39.2752 9.36192 39.3209 9.81279 39.2506 10.2702C39.1834 10.7231 38.988 11.1807 38.6642 11.6431C38.3785 12.0511 38.0222 12.3623 37.5951 12.5766C37.1725 12.7942 36.6879 12.8737 36.1411 12.8151C35.5989 12.7597 35.0049 12.5228 34.3589 12.1042L33.4007 12.2136ZM30.27 16.4966L27.2577 14.3875L29.1674 13.3534L31.3841 14.9055C31.7422 15.1563 32.0742 15.3044 32.3802 15.3497C32.6894 15.3906 32.9682 15.3494 33.2167 15.2261C33.4651 15.1028 33.6798 14.912 33.8608 14.6536C34.0639 14.3635 34.1902 14.077 34.2397 13.7941C34.2936 13.5144 34.2538 13.2433 34.1201 12.9808C33.9896 12.7137 33.7498 12.458 33.4007 12.2136L31.4356 10.8376L32.43 9.44643L34.8779 11.1604L34.9614 12.0397C35.5707 12.4528 35.9811 12.899 36.1927 13.3782C36.4121 13.856 36.4834 14.3282 36.4068 14.7947C36.3346 15.2644 36.1589 15.6987 35.8796 16.0976C35.4352 16.7322 34.9224 17.1703 34.3412 17.4118C33.7631 17.6489 33.1304 17.6889 32.4432 17.5319C31.7605 17.3782 31.0361 17.0331 30.27 16.4966ZM42.855 22.9376L41.7409 24.5287L36.7568 21.0388L37.8709 19.4477L42.855 22.9376ZM44.3486 11.6004L37.4163 21.5006L35.3765 20.0723L42.3087 10.172L44.3486 11.6004ZM52.8185 20.0543L44.3791 26.376L42.2101 24.8572L52.8209 17.5327L54.2012 18.4993L52.8185 20.0543ZM49.3088 29.8278L52.3561 19.7305L53.324 17.8851L54.7179 18.8611L51.4847 31.3514L49.3088 29.8278ZM51.767 26.0567L50.6481 27.6546L45.4192 23.9933L46.5381 22.3954L51.767 26.0567ZM60.3188 32.6426L62.3518 34.0662C61.8445 34.704 61.2466 35.167 60.5584 35.4552C59.8747 35.7466 59.1412 35.8343 58.3578 35.7181C57.579 35.6051 56.7838 35.2645 55.9724 34.6964C55.3378 34.252 54.8451 33.7449 54.4943 33.1749C54.1466 32.6005 53.9382 31.9816 53.8689 31.3184C53.8042 30.6583 53.8836 29.9708 54.1072 29.2559C54.3308 28.541 54.6965 27.8209 55.2044 27.0956L55.6853 26.4088C56.1931 25.6836 56.747 25.0952 57.3468 24.6437C57.9544 24.1909 58.5816 23.8836 59.2286 23.7219C59.8801 23.5633 60.5351 23.5491 61.1938 23.6793C61.8525 23.8095 62.4924 24.092 63.1134 24.5269C63.9385 25.1046 64.5295 25.7414 64.8867 26.4373C65.2484 27.1364 65.4015 27.8584 65.3461 28.6033C65.2952 29.3513 65.0666 30.083 64.6603 30.7983L62.6204 29.37C62.8771 28.9552 63.0342 28.5619 63.0919 28.1902C63.1527 27.8139 63.094 27.4587 62.9159 27.1246C62.7455 26.7891 62.4336 26.4626 61.9803 26.1452C61.6403 25.9071 61.299 25.7627 60.9562 25.7119C60.6135 25.661 60.2656 25.7045 59.9124 25.8423C59.5592 25.9801 59.2015 26.216 58.8392 26.5501C58.4846 26.8828 58.1232 27.312 57.7551 27.8379L57.2647 28.5382C56.906 29.0505 56.6287 29.5285 56.4328 29.9723C56.2401 30.4116 56.1294 30.8205 56.1008 31.199C56.0799 31.5762 56.1487 31.9217 56.3073 32.2354C56.4737 32.5478 56.7382 32.8309 57.1008 33.0849C57.5269 33.3832 57.9259 33.5612 58.2976 33.6189C58.6693 33.6765 59.0214 33.6224 59.3537 33.4565C59.6906 33.2938 60.0122 33.0225 60.3188 32.6426ZM70.3638 29.8165L63.4316 39.7167L61.3917 38.2883L68.3239 28.3881L70.3638 29.8165ZM76.2931 33.9682L68.9465 36.1099L64.9777 36.9587L65.9627 34.7705L68.959 33.7475L73.7908 32.2161L76.2931 33.9682ZM67.0422 42.2448L67.3294 35.6262L69.7245 35.4184L69.4561 43.935L67.0422 42.2448ZM82.6847 38.4436L75.7525 48.3439L73.7126 46.9155L80.6448 37.0153L82.6847 38.4436ZM83.6671 45.4344L82.5529 47.0256L78.0516 43.8737L79.1657 42.2826L83.6671 45.4344ZM87.1045 41.5384L85.9856 43.1363L81.0083 39.6511L82.1271 38.0532L87.1045 41.5384ZM88.2876 42.3668L91.9798 44.9521C92.7368 45.4822 93.3079 46.051 93.6932 46.6585C94.083 47.2692 94.2697 47.8999 94.2533 48.5504C94.2369 49.201 94.0017 49.8504 93.5478 50.4986C93.1764 51.029 92.7668 51.4211 92.3188 51.6749C91.8786 51.9273 91.4064 52.0662 90.9023 52.0916C90.4059 52.1155 89.8877 52.0499 89.3478 51.8948L88.4638 51.7825L85.2543 49.5352L86.3549 47.9346L88.7415 49.6058C89.0996 49.8565 89.441 50.0009 89.7656 50.0391C90.0902 50.0772 90.3907 50.0242 90.6673 49.8801C90.9484 49.7391 91.1937 49.5191 91.4032 49.2199C91.6254 48.9026 91.7585 48.587 91.8025 48.2733C91.8465 47.9596 91.7912 47.6574 91.6367 47.3668C91.4821 47.0762 91.2235 46.8039 90.8609 46.55L89.2086 45.3931L83.3953 53.6954L81.3554 52.267L88.2876 42.3668ZM86.8902 56.1426L87.7228 50.149L89.8878 51.6446L89.1396 57.5757L89.0729 57.6709L86.8902 56.1426ZM99.3777 50.1322L92.4455 60.0324L90.4124 58.6089L97.3447 48.7086L99.3777 50.1322ZM97.3956 63.4985L95.2402 61.9893L96.3679 60.4077L98.5097 61.9074C99.0446 62.282 99.5798 62.4777 100.115 62.4945C100.654 62.5068 101.179 62.3446 101.692 62.0078C102.21 61.6742 102.7 61.1765 103.163 60.5147L103.501 60.0319C103.857 59.5242 104.115 59.0396 104.276 58.5781C104.442 58.1198 104.512 57.6862 104.488 57.2773C104.463 56.8684 104.345 56.4918 104.134 56.1477C103.925 55.7991 103.624 55.4867 103.229 55.2105L101.013 53.6584L102.132 52.0605L104.348 53.6126C105.01 54.076 105.536 54.6131 105.926 55.2238C106.323 55.8332 106.578 56.4876 106.689 57.1871C106.801 57.8867 106.762 58.6027 106.573 59.3353C106.392 60.0666 106.054 60.7858 105.559 61.4929L105.23 61.9621C104.738 62.6647 104.178 63.2284 103.55 63.6531C102.926 64.081 102.266 64.3622 101.571 64.4967C100.883 64.6299 100.181 64.6146 99.4648 64.4509C98.7563 64.2857 98.0665 63.9683 97.3956 63.4985ZM103.328 52.8984L96.3961 62.7987L94.3562 61.3703L101.288 51.4701L103.328 52.8984ZM113.036 62.2189L104.596 68.5406L102.427 67.0218L113.038 59.6973L114.418 60.6638L113.036 62.2189ZM109.526 71.9924L112.573 61.8951L113.541 60.0497L114.935 61.0257L111.702 73.516L109.526 71.9924ZM111.984 68.2213L110.865 69.8192L105.637 66.1579L106.755 64.56L111.984 68.2213ZM120.015 64.5823L118.92 70.5446L124.149 67.477L126.372 69.0339L118.706 73.0498L116.183 76.6536L114.116 75.2062L116.639 71.6024L117.784 63.0206L120.015 64.5823Z" fill="url(#paint2_linear_2012_1764)"/>
<path d="M66.0193 9.83991L65.0242 11.261L61.3048 8.65669L62.2999 7.23557L66.0193 9.83991ZM68.9661 12.4911L67.7743 11.1397L71.8245 6.52763L77.2709 10.3413L76.2282 11.8304L72.2709 9.05943L70.3937 11.1904C70.5945 11.2026 70.8588 11.2593 71.1866 11.3605C71.5221 11.4603 71.8598 11.6292 72.1998 11.8673C72.6712 12.1974 73.0388 12.5696 73.3026 12.984C73.5696 13.3939 73.7323 13.8321 73.7907 14.2986C73.8536 14.7682 73.8064 15.2554 73.649 15.7599C73.4994 16.2631 73.2436 16.7731 72.8818 17.2899C72.5643 17.7432 72.198 18.1217 71.7827 18.4254C71.3751 18.7277 70.9274 18.9378 70.4395 19.0556C69.9549 19.1688 69.4444 19.1694 68.9081 19.0574C68.375 18.9408 67.8296 18.6873 67.2721 18.2969C66.8505 18.0017 66.4876 17.6564 66.1835 17.2611C65.8871 16.8643 65.6688 16.4379 65.5288 15.9818C65.392 15.5212 65.3544 15.0491 65.4161 14.5653C65.4824 14.0848 65.6667 13.6093 65.9692 13.1387L67.7439 14.3814C67.5629 14.7073 67.4636 15.0228 67.4459 15.3279C67.4282 15.633 67.4862 15.9168 67.6199 16.1793C67.7581 16.445 67.97 16.6779 68.2556 16.8778C68.514 17.0587 68.7694 17.1667 69.0219 17.2016C69.2822 17.2352 69.5354 17.2064 69.7815 17.1154C70.0277 17.0243 70.2644 16.8792 70.4915 16.6802C70.7187 16.4813 70.9323 16.239 71.1322 15.9534C71.3259 15.6769 71.468 15.4015 71.5587 15.1272C71.6526 14.8484 71.688 14.576 71.6649 14.3098C71.6418 14.0437 71.5555 13.7907 71.4059 13.5509C71.2609 13.3142 71.0479 13.0975 70.7668 12.9007C70.3906 12.6372 70.0608 12.4908 69.7774 12.4613C69.4986 12.4349 69.2282 12.4449 68.9661 12.4911ZM82.5663 20.1596L81.3998 21.8255C80.8666 22.587 80.334 23.1836 79.8022 23.6151C79.2703 24.0466 78.7387 24.333 78.2074 24.4744C77.6792 24.6113 77.1563 24.62 76.6386 24.5007C76.124 24.3769 75.6197 24.142 75.1256 23.796C74.7312 23.5199 74.399 23.2129 74.1288 22.8751C73.8618 22.5328 73.667 22.1599 73.5442 21.7564C73.4291 21.3515 73.3915 20.9131 73.4315 20.4412C73.476 19.9724 73.6095 19.4681 73.8322 18.9282C74.0594 18.3915 74.3857 17.8194 74.811 17.2119L75.9775 15.546C76.5107 14.7845 77.0417 14.1902 77.5703 13.7632C78.1035 13.3394 78.6342 13.0591 79.1624 12.9223C79.6906 12.7854 80.2103 12.7812 80.7217 12.9096C81.2362 13.0334 81.7406 13.2683 82.2347 13.6143C82.6336 13.8936 82.9658 14.2006 83.2315 14.5352C83.5016 14.873 83.6958 15.242 83.8141 15.6423C83.9401 16.0413 83.9808 16.4752 83.9363 16.9439C83.895 17.4082 83.7607 17.9086 83.5335 18.4454C83.314 18.9807 82.9916 19.5521 82.5663 20.1596ZM79.4333 20.8133L80.9474 18.6511C81.214 18.2703 81.423 17.9235 81.5745 17.6107C81.7337 17.2966 81.8423 17.0112 81.9003 16.7546C81.9584 16.498 81.9691 16.2657 81.9324 16.0576C81.8989 15.8449 81.8234 15.6536 81.706 15.4836C81.5886 15.3136 81.4347 15.1619 81.2444 15.0286C81.0086 14.8635 80.7645 14.7635 80.512 14.7286C80.2627 14.6891 80.0047 14.7247 79.7381 14.8353C79.4715 14.9458 79.1884 15.1428 78.8887 15.4261C78.5967 15.708 78.2856 16.0847 77.9555 16.5562L76.4415 18.7184C76.1749 19.0992 75.962 19.4467 75.8028 19.7608C75.6482 20.0781 75.5402 20.3674 75.479 20.6285C75.4223 20.8928 75.4068 21.1319 75.4326 21.3459C75.4662 21.5585 75.54 21.7521 75.6543 21.9267C75.7717 22.0967 75.9255 22.2484 76.1159 22.3817C76.3562 22.5499 76.6003 22.6499 76.8483 22.6817C77.1008 22.7166 77.3619 22.6765 77.6317 22.5614C77.9046 22.4418 78.1887 22.2387 78.4838 21.9522C78.7867 21.6644 79.1032 21.2848 79.4333 20.8133ZM85.0907 19.4343L85.4573 18.9108C85.7207 18.5345 86.0419 18.2494 86.421 18.0554C86.8 17.8615 87.211 17.781 87.6539 17.8142C88.1013 17.8505 88.5517 18.0274 89.005 18.3448C89.4674 18.6686 89.7899 19.0329 89.9726 19.4377C90.1597 19.8458 90.2247 20.2595 90.1676 20.6788C90.1149 21.1013 89.9569 21.5007 89.6934 21.877L89.3268 22.4005C89.0697 22.7677 88.7516 23.0483 88.3726 23.2423C87.9981 23.4394 87.5894 23.5214 87.1465 23.4883C86.7036 23.4551 86.2532 23.2782 85.7953 22.9577C85.3375 22.6371 85.015 22.2728 84.8278 21.8647C84.6406 21.4567 84.5734 21.0414 84.626 20.6189C84.6787 20.1964 84.8336 19.8015 85.0907 19.4343ZM86.6744 19.763L86.3078 20.2866C86.1872 20.4588 86.1046 20.6443 86.0602 20.8428C86.0234 21.04 86.0397 21.2338 86.1091 21.4242C86.1784 21.6147 86.3151 21.7813 86.519 21.9241C86.723 22.067 86.9218 22.1352 87.1154 22.1289C87.3135 22.1257 87.4967 22.0716 87.6649 21.9664C87.8408 21.8599 87.9891 21.7205 88.1097 21.5483L88.4763 21.0247C88.6001 20.8479 88.6819 20.6587 88.7219 20.4569C88.7663 20.2584 88.7539 20.0639 88.6845 19.8735C88.6197 19.6862 88.4853 19.5212 88.2813 19.3783C88.0819 19.2387 87.8808 19.1688 87.6782 19.1688C87.4801 19.172 87.2931 19.2268 87.1171 19.3333C86.9458 19.443 86.7982 19.5862 86.6744 19.763ZM85.9442 28.3312L86.3108 27.8077C86.5711 27.436 86.8907 27.1531 87.2698 26.9591C87.6533 26.7683 88.0688 26.6911 88.5163 26.7274C88.9637 26.7638 89.4119 26.939 89.8606 27.2533C90.3275 27.5802 90.6523 27.9461 90.835 28.351C91.0176 28.7558 91.0803 29.1679 91.0231 29.5873C90.9705 30.0098 90.814 30.4069 90.5538 30.7786L90.1872 31.3022C89.9269 31.6739 89.6072 31.9568 89.2282 32.1507C88.8537 32.3479 88.445 32.4299 88.0021 32.3967C87.5637 32.3668 87.1133 32.1899 86.6509 31.8661C86.1976 31.5487 85.8751 31.1844 85.6834 30.7732C85.4962 30.3651 85.4267 29.9483 85.4748 29.5226C85.5275 29.1001 85.6839 28.703 85.9442 28.3312ZM87.5347 28.6647L87.1681 29.1883C87.0443 29.365 86.9648 29.5559 86.9294 29.7608C86.8971 29.9612 86.9157 30.1566 86.985 30.347C87.0589 30.5406 87.1888 30.7024 87.3746 30.8326C87.6013 30.9913 87.8137 31.0691 88.0118 31.0659C88.2099 31.0628 88.3885 31.0055 88.5477 30.894C88.71 30.7779 88.853 30.6315 88.9768 30.4547L89.3434 29.9311C89.4672 29.7544 89.5475 29.5674 89.5842 29.3702C89.6242 29.1684 89.6095 28.9723 89.5401 28.7819C89.4753 28.5947 89.3409 28.4296 89.1369 28.2868C88.9375 28.1472 88.7364 28.0773 88.5338 28.0773C88.3357 28.0804 88.1487 28.1353 87.9727 28.2418C87.8045 28.3469 87.6585 28.4879 87.5347 28.6647ZM93.1232 23.5489L82.8705 27.9017L82.3274 26.7816L92.58 22.4289L93.1232 23.5489ZM105.545 37.141L105.188 37.651C104.664 38.3989 104.093 39.0023 103.474 39.461C102.859 39.9151 102.222 40.2222 101.563 40.3821C100.904 40.5421 100.242 40.5554 99.5791 40.422C98.9159 40.2886 98.2737 40.0045 97.6527 39.5696C97.0407 39.1411 96.5564 38.6365 96.1997 38.0557C95.8475 37.4781 95.6316 36.8506 95.5519 36.1733C95.4722 35.496 95.5383 34.789 95.7501 34.0523C95.9651 33.3111 96.3344 32.5665 96.8581 31.8186L97.2152 31.3086C97.7421 30.5561 98.3155 29.9544 98.9353 29.5034C99.5551 29.0524 100.195 28.7469 100.854 28.587C101.516 28.4225 102.179 28.407 102.842 28.5403C103.51 28.6769 104.15 28.9594 104.762 29.3879C105.383 29.8228 105.869 30.329 106.222 30.9066C106.574 31.4842 106.786 32.1124 106.858 32.7911C106.937 33.4684 106.869 34.1738 106.653 34.9073C106.441 35.6439 106.072 36.3885 105.545 37.141ZM103.297 36.3274L103.664 35.8038C104.042 35.2644 104.324 34.7558 104.509 34.2779C104.699 33.7956 104.794 33.3457 104.796 32.9281C104.798 32.5106 104.705 32.1316 104.518 31.7911C104.334 31.4461 104.063 31.1482 103.705 30.8974C103.342 30.6435 102.97 30.4907 102.587 30.4389C102.212 30.3858 101.829 30.4316 101.437 30.5761C101.045 30.7207 100.653 30.9627 100.26 31.3022C99.8743 31.6404 99.4928 32.0792 99.115 32.6186L98.7484 33.1422C98.3739 33.6771 98.0921 34.1857 97.9029 34.668C97.7184 35.1536 97.6236 35.6073 97.6185 36.0294C97.6212 36.4501 97.7122 36.8314 97.8917 37.1733C98.0712 37.5151 98.3423 37.813 98.7049 38.0669C99.0676 38.3209 99.4402 38.4737 99.8228 38.5254C100.205 38.5772 100.59 38.5292 100.978 38.3814C101.372 38.2323 101.764 37.9864 102.153 37.6437C102.541 37.3011 102.923 36.8623 103.297 36.3274ZM112.289 34.8611L105.357 44.7614L103.487 43.452L110.419 33.5518L112.289 34.8611ZM113.285 41.9329L112.252 43.4084L107.771 40.2708L108.805 38.7953L113.285 41.9329ZM116.804 38.0225L115.771 39.498L110.766 35.9938L111.799 34.5183L116.804 38.0225ZM119.945 40.2222L113.013 50.1224L111.143 48.8131L118.075 38.9129L119.945 40.2222ZM120.942 47.2939L119.909 48.7694L115.428 45.6318L116.461 44.1563L120.942 47.2939ZM124.46 43.3836L123.427 44.8591L118.422 41.3549L119.456 39.8794L124.46 43.3836Z" fill="#FFDB5D"/>
<defs>
<linearGradient id="paint0_linear_2012_1764" x1="30.332" y1="-13.078" x2="138.331" y2="62.5435" gradientUnits="userSpaceOnUse">
<stop/>
<stop offset="1" stop-opacity="0.2"/>
</linearGradient>
<linearGradient id="paint1_linear_2012_1764" x1="133.894" y1="84.0901" x2="4.24331" y2="-6.69225" gradientUnits="userSpaceOnUse">
<stop/>
<stop offset="1" stop-opacity="0.2"/>
</linearGradient>
<linearGradient id="paint2_linear_2012_1764" x1="32.4386" y1="3.09457" x2="126.641" y2="69.0559" gradientUnits="userSpaceOnUse">
<stop stop-color="#FF6B00"/>
<stop offset="1" stop-color="#FFA500"/>
</linearGradient>
</defs>
</svg>
