<svg width="79" height="48" viewBox="0 0 79 48" fill="none" xmlns="http://www.w3.org/2000/svg">
<g clip-path="url(#clip0_149_11345)">
<g opacity="0.22">
<mask id="path-2-inside-1_149_11345" fill="white">
<path fill-rule="evenodd" clip-rule="evenodd" d="M65.7276 -3C62.9935 -3 58.4283 -1.97316 54.1271 -0.834966C50.2907 0.195103 46.4792 1.31574 42.6958 2.52599C41.6156 2.86619 40.6539 3.50532 39.9218 4.36942C39.1898 5.23352 38.7175 6.28726 38.5595 7.40866C36.1965 24.7166 41.673 37.5418 48.3249 46.0287C49.0276 46.9331 49.763 47.81 50.5293 48.6579V10.7283H64.9624C67.0243 10.7283 69.0053 10.9294 70.9054 11.3317C72.846 11.7339 74.544 12.4177 75.9995 13.3832C77.4549 14.3083 78.6071 15.5754 79.4561 17.1845C80.3456 18.7533 80.7903 20.7243 80.7903 23.0976C80.7903 25.7927 80.3253 27.9649 79.3955 29.6142C78.4656 31.2634 77.2123 32.5506 75.6356 33.4758C74.0589 34.3608 72.2194 34.9642 70.1171 35.286C68.0552 35.6078 65.8923 35.7687 63.6282 35.7687H58.1703V55.428C58.2109 55.4566 58.2516 55.4852 58.2923 55.5137C59.606 56.4347 60.9952 57.2431 62.445 57.9302C63.5584 58.4416 64.7461 58.8581 65.7276 58.8581C66.7091 58.8581 67.8968 58.4416 69.0102 57.9302C70.4597 57.2425 71.8489 56.4341 73.163 55.5137C76.9422 52.8682 80.3034 49.671 83.1345 46.0287C89.778 37.5418 95.2587 24.7166 92.8957 7.40866C92.5782 5.09516 90.9369 3.2188 88.7594 2.52599C84.976 1.31571 81.1645 0.195074 77.3281 -0.834966C73.0269 -1.97316 68.4576 -3 65.7276 -3ZM66.1753 29.1315C65.0028 29.2119 63.8708 29.2521 62.7792 29.2521H58.1703V17.2448H63.6282C64.639 17.2448 65.6901 17.3051 66.7817 17.4258C67.8733 17.5465 68.8638 17.8281 69.7532 18.2706C70.6426 18.6728 71.3704 19.2762 71.9364 20.0807C72.5024 20.845 72.7854 21.8909 72.7854 23.2183C72.7854 24.6664 72.4619 25.7927 71.8151 26.5972C71.2086 27.4018 70.4001 28.0051 69.3893 28.4074C68.4191 28.8097 67.3477 29.051 66.1753 29.1315Z"/>
</mask>
<path fill-rule="evenodd" clip-rule="evenodd" d="M65.7276 -3C62.9935 -3 58.4283 -1.97316 54.1271 -0.834966C50.2907 0.195103 46.4792 1.31574 42.6958 2.52599C41.6156 2.86619 40.6539 3.50532 39.9218 4.36942C39.1898 5.23352 38.7175 6.28726 38.5595 7.40866C36.1965 24.7166 41.673 37.5418 48.3249 46.0287C49.0276 46.9331 49.763 47.81 50.5293 48.6579V10.7283H64.9624C67.0243 10.7283 69.0053 10.9294 70.9054 11.3317C72.846 11.7339 74.544 12.4177 75.9995 13.3832C77.4549 14.3083 78.6071 15.5754 79.4561 17.1845C80.3456 18.7533 80.7903 20.7243 80.7903 23.0976C80.7903 25.7927 80.3253 27.9649 79.3955 29.6142C78.4656 31.2634 77.2123 32.5506 75.6356 33.4758C74.0589 34.3608 72.2194 34.9642 70.1171 35.286C68.0552 35.6078 65.8923 35.7687 63.6282 35.7687H58.1703V55.428C58.2109 55.4566 58.2516 55.4852 58.2923 55.5137C59.606 56.4347 60.9952 57.2431 62.445 57.9302C63.5584 58.4416 64.7461 58.8581 65.7276 58.8581C66.7091 58.8581 67.8968 58.4416 69.0102 57.9302C70.4597 57.2425 71.8489 56.4341 73.163 55.5137C76.9422 52.8682 80.3034 49.671 83.1345 46.0287C89.778 37.5418 95.2587 24.7166 92.8957 7.40866C92.5782 5.09516 90.9369 3.2188 88.7594 2.52599C84.976 1.31571 81.1645 0.195074 77.3281 -0.834966C73.0269 -1.97316 68.4576 -3 65.7276 -3ZM66.1753 29.1315C65.0028 29.2119 63.8708 29.2521 62.7792 29.2521H58.1703V17.2448H63.6282C64.639 17.2448 65.6901 17.3051 66.7817 17.4258C67.8733 17.5465 68.8638 17.8281 69.7532 18.2706C70.6426 18.6728 71.3704 19.2762 71.9364 20.0807C72.5024 20.845 72.7854 21.8909 72.7854 23.2183C72.7854 24.6664 72.4619 25.7927 71.8151 26.5972C71.2086 27.4018 70.4001 28.0051 69.3893 28.4074C68.4191 28.8097 67.3477 29.051 66.1753 29.1315Z" fill="black"/>
<path d="M54.1271 -0.834966L54.0644 -1.07216L54.0635 -1.07193L54.1271 -0.834966ZM42.6958 2.52599L42.7695 2.76002L42.7705 2.75968L42.6958 2.52599ZM39.9218 4.36942L40.1091 4.52801H40.1091L39.9218 4.36942ZM38.5595 7.40866L38.3166 7.37443L38.3164 7.37547L38.5595 7.40866ZM48.3249 46.0287L48.5186 45.8782L48.518 45.8774L48.3249 46.0287ZM50.5293 48.6579L50.3473 48.8224L50.7746 49.2952V48.6579H50.5293ZM50.5293 10.7283V10.4829H50.2839V10.7283H50.5293ZM70.9054 11.3317L70.8546 11.5717L70.8556 11.5719L70.9054 11.3317ZM75.9995 13.3832L75.8638 13.5877L75.8678 13.5902L75.9995 13.3832ZM79.4561 17.1845L79.239 17.299L79.2427 17.3055L79.4561 17.1845ZM79.3955 29.6142L79.1818 29.4937V29.4937L79.3955 29.6142ZM75.6356 33.4758L75.7557 33.6898L75.7598 33.6874L75.6356 33.4758ZM70.1171 35.286L70.0799 35.0434L70.0792 35.0435L70.1171 35.286ZM58.1703 35.7687V35.5233H57.925V35.7687H58.1703ZM58.1703 55.428H57.925V55.5552L58.0289 55.6285L58.1703 55.428ZM58.2923 55.5137L58.4331 55.3128L58.433 55.3127L58.2923 55.5137ZM62.445 57.9302L62.3399 58.152L62.3426 58.1532L62.445 57.9302ZM69.0102 57.9302L69.1126 58.1532L69.1154 58.1519L69.0102 57.9302ZM73.163 55.5137L73.0223 55.3127L73.0222 55.3127L73.163 55.5137ZM83.1345 46.0287L82.9413 45.8775L82.9408 45.8782L83.1345 46.0287ZM92.8957 7.40866L93.1388 7.37547L93.1388 7.37529L92.8957 7.40866ZM88.7594 2.52599L88.6847 2.75968L88.6851 2.7598L88.7594 2.52599ZM77.3281 -0.834966L77.3917 -1.07193L77.3908 -1.07216L77.3281 -0.834966ZM66.1753 29.1315L66.192 29.3762L66.1753 29.1315ZM58.1703 29.2521H57.925V29.4975H58.1703V29.2521ZM58.1703 17.2448V16.9995H57.925V17.2448H58.1703ZM69.7532 18.2706L69.6438 18.4904L69.6521 18.4941L69.7532 18.2706ZM71.9364 20.0807L71.7356 20.2219L71.7392 20.2267L71.9364 20.0807ZM71.8151 26.5972L71.6238 26.4434L71.6191 26.4496L71.8151 26.5972ZM69.3893 28.4074L69.2986 28.1794L69.2954 28.1808L69.3893 28.4074ZM54.1899 -0.597776C58.4968 -1.73747 63.0308 -2.75465 65.7276 -2.75465V-3.24535C62.9561 -3.24535 58.3599 -2.20884 54.0644 -1.07216L54.1899 -0.597776ZM42.7705 2.75968C46.5503 1.5506 50.3581 0.431062 54.1908 -0.598005L54.0635 -1.07193C50.2234 -0.0408552 46.4081 1.08087 42.621 2.2923L42.7705 2.75968ZM40.1091 4.52801C40.8111 3.69927 41.7335 3.08629 42.7695 2.76001L42.6221 2.29197C41.4977 2.64608 40.4966 3.31137 39.7346 4.21083L40.1091 4.52801ZM38.8025 7.44289C38.954 6.36737 39.407 5.35676 40.1091 4.52801L39.7346 4.21083C38.9727 5.11029 38.481 6.20714 38.3166 7.37443L38.8025 7.44289ZM48.518 45.8774C41.9018 37.4359 36.4497 24.676 38.8026 7.44185L38.3164 7.37547C35.9434 24.7572 41.4443 37.6477 48.1317 46.1801L48.518 45.8774ZM50.7113 48.4933C49.949 47.65 49.2176 46.7777 48.5186 45.8782L48.1311 46.1793C48.8376 47.0884 49.5769 47.97 50.3473 48.8224L50.7113 48.4933ZM50.7746 48.6579V10.7283H50.2839V48.6579H50.7746ZM50.5293 10.9736H64.9624V10.4829H50.5293V10.9736ZM64.9624 10.9736C67.0082 10.9736 68.9722 11.1732 70.8546 11.5717L70.9562 11.0916C69.0384 10.6856 67.0403 10.4829 64.9624 10.4829V10.9736ZM70.8556 11.5719C72.7697 11.9687 74.4377 12.6417 75.8638 13.5876L76.1351 13.1787C74.6503 12.1938 72.9223 11.4992 70.9552 11.0914L70.8556 11.5719ZM75.8678 13.5902C77.2853 14.4912 78.4089 15.7256 79.2391 17.299L79.6731 17.07C78.8053 15.4253 77.6245 14.1255 76.1311 13.1761L75.8678 13.5902ZM79.2427 17.3055C80.1056 18.8275 80.5449 20.7537 80.5449 23.0976H81.0356C81.0356 20.6949 80.5855 18.679 79.6696 17.0635L79.2427 17.3055ZM80.5449 23.0976C80.5449 25.7674 80.0839 27.8935 79.1818 29.4937L79.6092 29.7347C80.5667 28.0363 81.0356 25.8181 81.0356 23.0976H80.5449ZM79.1818 29.4937C78.2724 31.1066 77.0494 32.3618 75.5114 33.2642L75.7598 33.6874C77.3752 32.7395 78.6589 31.4203 79.6092 29.7347L79.1818 29.4937ZM75.5155 33.2619C73.9686 34.1301 72.1581 34.7253 70.0799 35.0434L70.1542 35.5285C72.2806 35.203 74.1492 34.5915 75.7557 33.6898L75.5155 33.2619ZM70.0792 35.0435C68.0309 35.3632 65.8806 35.5233 63.6282 35.5233V36.014C65.9039 36.014 68.0795 35.8523 70.1549 35.5284L70.0792 35.0435ZM63.6282 35.5233H58.1703V36.014H63.6282V35.5233ZM57.925 35.7687V55.428H58.4157V35.7687H57.925ZM58.433 55.3127C58.3925 55.2843 58.3521 55.2559 58.3118 55.2275L58.0289 55.6285C58.0697 55.6573 58.1106 55.686 58.1515 55.7146L58.433 55.3127ZM62.5501 57.7085C61.1127 57.0273 59.7355 56.2259 58.4331 55.3128L58.1514 55.7146C59.4765 56.6435 60.8776 57.4589 62.3399 58.152L62.5501 57.7085ZM65.7276 58.6128C64.8027 58.6128 63.6562 58.2165 62.5474 57.7073L62.3426 58.1532C63.4607 58.6667 64.6896 59.1035 65.7276 59.1035V58.6128ZM68.9078 57.7073C67.799 58.2165 66.6525 58.6128 65.7276 58.6128V59.1035C66.7656 59.1035 67.9945 58.6667 69.1126 58.1532L68.9078 57.7073ZM73.0222 55.3127C71.7194 56.2253 70.3421 57.0267 68.905 57.7086L69.1154 58.1519C70.5773 57.4583 71.9784 56.643 73.3037 55.7146L73.0222 55.3127ZM82.9408 45.8782C80.1247 49.501 76.7814 52.6812 73.0223 55.3127L73.3037 55.7147C77.103 53.0551 80.482 49.8409 83.3282 46.1793L82.9408 45.8782ZM92.6526 7.44185C95.0055 24.6759 89.5493 37.4359 82.9413 45.8775L83.3277 46.18C90.0068 37.6477 95.5118 24.7572 93.1388 7.37547L92.6526 7.44185ZM88.6851 2.7598C90.7751 3.42482 92.3484 5.22521 92.6526 7.44202L93.1388 7.37529C92.808 4.96512 91.0986 3.01278 88.8338 2.29219L88.6851 2.7598ZM77.2644 -0.598004C81.0971 0.431032 84.9049 1.55057 88.6847 2.75968L88.8342 2.2923C85.0471 1.08084 81.2318 -0.0408852 77.3917 -1.07193L77.2644 -0.598004ZM65.7276 -2.75465C68.4203 -2.75465 72.9584 -1.73747 77.2653 -0.597776L77.3908 -1.07216C73.0953 -2.20884 68.495 -3.24535 65.7276 -3.24535V-2.75465ZM62.7792 29.4975C63.8768 29.4975 65.0144 29.457 66.192 29.3762L66.1585 28.8867C64.9912 28.9668 63.8648 29.0068 62.7792 29.0068V29.4975ZM58.1703 29.4975H62.7792V29.0068H58.1703V29.4975ZM57.925 17.2448V29.2521H58.4157V17.2448H57.925ZM63.6282 16.9995H58.1703V17.4902H63.6282V16.9995ZM66.8086 17.182C65.7089 17.0604 64.6487 16.9995 63.6282 16.9995V17.4902C64.6292 17.4902 65.6713 17.5499 66.7547 17.6697L66.8086 17.182ZM69.8625 18.0509C68.9447 17.5943 67.9259 17.3055 66.8086 17.182L66.7547 17.6697C67.8207 17.7875 68.7829 18.0619 69.6439 18.4902L69.8625 18.0509ZM72.137 19.9395C71.546 19.0994 70.784 18.4675 69.8543 18.047L69.6521 18.4941C70.5013 18.8782 71.1947 19.4529 71.7357 20.2219L72.137 19.9395ZM73.0307 23.2183C73.0307 21.8586 72.7411 20.7551 72.1335 19.9347L71.7392 20.2267C72.2637 20.9349 72.54 21.9231 72.54 23.2183H73.0307ZM72.0063 26.751C72.6999 25.8883 73.0307 24.7002 73.0307 23.2183H72.54C72.54 24.6327 72.2239 25.6972 71.6239 26.4435L72.0063 26.751ZM69.4801 28.6354C70.5291 28.2179 71.3754 27.5882 72.011 26.7449L71.6191 26.4496C71.0419 27.2153 70.271 27.7924 69.2986 28.1794L69.4801 28.6354ZM66.192 29.3762C67.3879 29.2942 68.4857 29.0476 69.4833 28.634L69.2954 28.1808C68.3524 28.5717 67.3075 28.8078 66.1585 28.8867L66.192 29.3762Z" fill="black" mask="url(#path-2-inside-1_149_11345)"/>
</g>
<g opacity="0.22">
<mask id="path-4-inside-2_149_11345" fill="white">
<path fill-rule="evenodd" clip-rule="evenodd" d="M19.5001 29C18.1741 29 15.9601 29.498 13.8741 30.05C12.0135 30.5496 10.165 31.093 8.33009 31.68C7.80623 31.845 7.3398 32.155 6.98479 32.574C6.62979 32.9931 6.40071 33.5041 6.32409 34.048C5.17809 42.442 7.83409 48.662 11.0601 52.778C11.4008 53.2165 11.7574 53.6417 12.1289 54.0528V35.6579H19.1287C20.1287 35.6579 21.0894 35.7554 22.011 35.9505C22.9521 36.1456 23.7756 36.4773 24.4815 36.9455C25.1873 37.3942 25.7461 38.0087 26.1579 38.789C26.5892 39.5499 26.8049 40.5058 26.8049 41.6568C26.8049 42.9639 26.5794 44.0173 26.1285 44.8172C25.6775 45.617 25.0697 46.2413 24.305 46.69C23.5403 47.1192 22.6482 47.4118 21.6286 47.5679C20.6286 47.724 19.5797 47.802 18.4817 47.802H15.8347V57.3362C15.8545 57.3502 15.8743 57.3641 15.8941 57.378C16.5312 57.8247 17.205 58.2167 17.9081 58.55C18.4481 58.798 19.0241 59 19.5001 59C19.9761 59 20.5521 58.798 21.0921 58.55C21.7951 58.2165 22.4688 57.8244 23.1061 57.378C24.9389 56.095 26.5691 54.5444 27.9421 52.778C31.1641 48.662 33.8221 42.442 32.6761 34.048C32.5221 32.926 31.7261 32.016 30.6701 31.68C28.8352 31.093 26.9867 30.5495 25.1261 30.05C23.0401 29.498 20.8241 29 19.5001 29ZM19.7169 44.5831C19.1483 44.6221 18.5993 44.6416 18.0699 44.6416H15.8347V38.8183H18.4817C18.9718 38.8183 19.4816 38.8476 20.011 38.9061C20.5404 38.9646 21.0208 39.1012 21.4522 39.3158C21.8835 39.5108 22.2364 39.8035 22.5109 40.1936C22.7854 40.5643 22.9227 41.0715 22.9227 41.7153C22.9227 42.4176 22.7658 42.9639 22.4521 43.354C22.158 43.7442 21.7659 44.0368 21.2757 44.2319C20.8051 44.427 20.2855 44.5441 19.7169 44.5831Z"/>
</mask>
<path fill-rule="evenodd" clip-rule="evenodd" d="M19.5001 29C18.1741 29 15.9601 29.498 13.8741 30.05C12.0135 30.5496 10.165 31.093 8.33009 31.68C7.80623 31.845 7.3398 32.155 6.98479 32.574C6.62979 32.9931 6.40071 33.5041 6.32409 34.048C5.17809 42.442 7.83409 48.662 11.0601 52.778C11.4008 53.2165 11.7574 53.6417 12.1289 54.0528V35.6579H19.1287C20.1287 35.6579 21.0894 35.7554 22.011 35.9505C22.9521 36.1456 23.7756 36.4773 24.4815 36.9455C25.1873 37.3942 25.7461 38.0087 26.1579 38.789C26.5892 39.5499 26.8049 40.5058 26.8049 41.6568C26.8049 42.9639 26.5794 44.0173 26.1285 44.8172C25.6775 45.617 25.0697 46.2413 24.305 46.69C23.5403 47.1192 22.6482 47.4118 21.6286 47.5679C20.6286 47.724 19.5797 47.802 18.4817 47.802H15.8347V57.3362C15.8545 57.3502 15.8743 57.3641 15.8941 57.378C16.5312 57.8247 17.205 58.2167 17.9081 58.55C18.4481 58.798 19.0241 59 19.5001 59C19.9761 59 20.5521 58.798 21.0921 58.55C21.7951 58.2165 22.4688 57.8244 23.1061 57.378C24.9389 56.095 26.5691 54.5444 27.9421 52.778C31.1641 48.662 33.8221 42.442 32.6761 34.048C32.5221 32.926 31.7261 32.016 30.6701 31.68C28.8352 31.093 26.9867 30.5495 25.1261 30.05C23.0401 29.498 20.8241 29 19.5001 29ZM19.7169 44.5831C19.1483 44.6221 18.5993 44.6416 18.0699 44.6416H15.8347V38.8183H18.4817C18.9718 38.8183 19.4816 38.8476 20.011 38.9061C20.5404 38.9646 21.0208 39.1012 21.4522 39.3158C21.8835 39.5108 22.2364 39.8035 22.5109 40.1936C22.7854 40.5643 22.9227 41.0715 22.9227 41.7153C22.9227 42.4176 22.7658 42.9639 22.4521 43.354C22.158 43.7442 21.7659 44.0368 21.2757 44.2319C20.8051 44.427 20.2855 44.5441 19.7169 44.5831Z" fill="black"/>
<path d="M13.8741 30.05L13.8113 29.8128L13.8105 29.813L13.8741 30.05ZM8.33009 31.68L8.4038 31.914L8.40485 31.9137L8.33009 31.68ZM6.32409 34.048L6.08114 34.0138L6.08099 34.0148L6.32409 34.048ZM11.0601 52.778L11.2538 52.6275L11.2532 52.6266L11.0601 52.778ZM12.1289 54.0528L11.9469 54.2173L12.3743 54.6901V54.0528H12.1289ZM12.1289 35.6579V35.4125H11.8836V35.6579H12.1289ZM22.011 35.9505L21.9601 36.1906L21.9612 36.1908L22.011 35.9505ZM24.4815 36.9455L24.3458 37.15L24.3498 37.1525L24.4815 36.9455ZM26.1579 38.789L25.9408 38.9036L25.9444 38.91L26.1579 38.789ZM24.305 46.69L24.4251 46.904L24.4292 46.9016L24.305 46.69ZM21.6286 47.5679L21.5915 47.3254L21.5908 47.3255L21.6286 47.5679ZM15.8347 47.802V47.5567H15.5893V47.802H15.8347ZM15.8347 57.3362H15.5893V57.4634L15.6933 57.5368L15.8347 57.3362ZM15.8941 57.378L16.0349 57.1771L16.0348 57.177L15.8941 57.378ZM17.9081 58.55L17.803 58.7717L17.8057 58.773L17.9081 58.55ZM21.0921 58.55L21.1945 58.773L21.1973 58.7717L21.0921 58.55ZM23.1061 57.378L22.9654 57.177L22.9653 57.177L23.1061 57.378ZM27.9421 52.778L27.7489 52.6268L27.7484 52.6274L27.9421 52.778ZM32.6761 34.048L32.9192 34.0148L32.9192 34.0146L32.6761 34.048ZM30.6701 31.68L30.5953 31.9137L30.5957 31.9138L30.6701 31.68ZM25.1261 30.05L25.1897 29.813L25.1889 29.8128L25.1261 30.05ZM19.7169 44.5831L19.7001 44.3383H19.7001L19.7169 44.5831ZM15.8347 44.6416H15.5893V44.887H15.8347V44.6416ZM15.8347 38.8183V38.5729H15.5893V38.8183H15.8347ZM20.011 38.9061L19.9841 39.1499L20.011 38.9061ZM21.4522 39.3158L21.3428 39.5356L21.351 39.5393L21.4522 39.3158ZM22.5109 40.1936L22.3102 40.3349L22.3138 40.3397L22.5109 40.1936ZM22.4521 43.354L22.2608 43.2002L22.2562 43.2064L22.4521 43.354ZM21.2757 44.2319L21.1849 44.0039L21.1817 44.0053L21.2757 44.2319ZM13.9369 30.2872C16.0286 29.7337 18.2114 29.2454 19.5001 29.2454V28.7546C18.1367 28.7546 15.8916 29.2623 13.8113 29.8128L13.9369 30.2872ZM8.40485 31.9137C10.2361 31.3279 12.0809 30.7855 13.9377 30.287L13.8105 29.813C11.9461 30.3136 10.0939 30.8582 8.25534 31.4463L8.40485 31.9137ZM7.172 32.7326C7.49706 32.3489 7.92413 32.0651 8.4038 31.914L8.25639 31.446C7.68833 31.6249 7.18255 31.961 6.79758 32.4154L7.172 32.7326ZM6.56705 34.0822C6.6372 33.5843 6.84695 33.1163 7.172 32.7326L6.79758 32.4154C6.41262 32.8699 6.16422 33.424 6.08114 34.0138L6.56705 34.0822ZM11.2532 52.6266C8.06284 48.5561 5.43126 42.4014 6.56719 34.0812L6.08099 34.0148C4.92492 42.4826 7.60534 48.7679 10.867 52.9294L11.2532 52.6266ZM12.3109 53.8883C11.9435 53.4817 11.5908 53.0611 11.2538 52.6275L10.8664 52.9285C11.2108 53.3718 11.5713 53.8017 11.9469 54.2173L12.3109 53.8883ZM12.3743 54.0528V35.6579H11.8836V54.0528H12.3743ZM12.1289 35.9032H19.1287V35.4125H12.1289V35.9032ZM19.1287 35.9032C20.1126 35.9032 21.0563 35.9992 21.9601 36.1906L22.0618 35.7105C21.1225 35.5117 20.1447 35.4125 19.1287 35.4125V35.9032ZM21.9612 36.1908C22.8758 36.3804 23.6693 36.7012 24.3458 37.1499L24.6171 36.741C23.8819 36.2533 23.0284 35.9109 22.0608 35.7103L21.9612 36.1908ZM24.3498 37.1525C25.0177 37.577 25.5479 38.1588 25.9409 38.9035L26.3749 38.6745C25.9443 37.8586 25.357 37.2113 24.6131 36.7384L24.3498 37.1525ZM25.9444 38.91C26.3493 39.6241 26.5596 40.5352 26.5596 41.6568H27.0503C27.0503 40.4764 26.8292 39.4756 26.3713 38.668L25.9444 38.91ZM26.5596 41.6568C26.5596 42.9385 26.338 43.9459 25.9147 44.6967L26.3422 44.9377C26.8208 44.0887 27.0503 42.9892 27.0503 41.6568H26.5596ZM25.9147 44.6967C25.4843 45.4602 24.9068 46.0524 24.1808 46.4784L24.4292 46.9016C25.2326 46.4302 25.8707 45.7739 26.3422 44.9377L25.9147 44.6967ZM24.1849 46.4761C23.45 46.8885 22.587 47.173 21.5915 47.3254L21.6657 47.8104C22.7094 47.6507 23.6306 47.3499 24.4251 46.904L24.1849 46.4761ZM21.5908 47.3255C20.6043 47.4794 19.5681 47.5567 18.4817 47.5567V48.0474C19.5913 48.0474 20.653 47.9685 21.6665 47.8103L21.5908 47.3255ZM18.4817 47.5567H15.8347V48.0474H18.4817V47.5567ZM15.5893 47.802V57.3362H16.08V47.802H15.5893ZM16.0348 57.177C16.0152 57.1633 15.9957 57.1495 15.9761 57.1357L15.6933 57.5368C15.7133 57.5509 15.7333 57.5649 15.7533 57.579L16.0348 57.177ZM18.0132 58.3283C17.3225 58.0009 16.6608 57.6159 16.0349 57.1771L15.7532 57.5789C16.4017 58.0335 17.0874 58.4325 17.803 58.7717L18.0132 58.3283ZM19.5001 58.7546C19.0806 58.7546 18.5458 58.5729 18.0105 58.327L17.8057 58.773C18.3503 59.0231 18.9676 59.2454 19.5001 59.2454V58.7546ZM20.9897 58.327C20.4543 58.5729 19.9196 58.7546 19.5001 58.7546V59.2454C20.0326 59.2454 20.6498 59.0231 21.1945 58.773L20.9897 58.327ZM22.9653 57.177C22.3393 57.6156 21.6775 58.0007 20.9869 58.3283L21.1973 58.7717C21.9127 58.4322 22.5983 58.0333 23.2469 57.579L22.9653 57.177ZM27.7484 52.6274C26.3904 54.3745 24.7781 55.9081 22.9654 57.177L23.2468 57.579C25.0997 56.2819 26.7477 54.7144 28.1358 52.9286L27.7484 52.6274ZM32.433 34.0812C33.5689 42.4014 30.9354 48.5561 27.7489 52.6268L28.1353 52.9292C31.3928 48.7679 34.0753 42.4826 32.9192 34.0148L32.433 34.0812ZM30.5957 31.9138C31.5644 32.222 32.2923 33.056 32.433 34.0814L32.9192 34.0146C32.7519 32.796 31.8878 31.81 30.7445 31.4462L30.5957 31.9138ZM25.0625 30.287C26.9193 30.7855 28.7641 31.3279 30.5953 31.9137L30.7448 31.4463C28.9063 30.8582 27.054 30.3136 25.1897 29.813L25.0625 30.287ZM19.5001 29.2454C20.7867 29.2454 22.9717 29.7337 25.0633 30.2872L25.1889 29.8128C23.1085 29.2623 20.8614 28.7546 19.5001 28.7546V29.2454ZM18.0699 44.887C18.6053 44.887 19.1599 44.8672 19.7337 44.8279L19.7001 44.3383C19.1367 44.377 18.5933 44.3963 18.0699 44.3963V44.887ZM15.8347 44.887H18.0699V44.3963H15.8347V44.887ZM15.5893 38.8183V44.6416H16.08V38.8183H15.5893ZM18.4817 38.5729H15.8347V39.0636H18.4817V38.5729ZM20.038 38.6622C19.5004 38.6028 18.9816 38.5729 18.4817 38.5729V39.0636C18.9621 39.0636 19.4629 39.0923 19.9841 39.1499L20.038 38.6622ZM21.5614 39.0961C21.1017 38.8674 20.593 38.7236 20.038 38.6622L19.9841 39.1499C20.4878 39.2056 20.9399 39.335 21.3429 39.5354L21.5614 39.0961ZM22.7116 40.0525C22.4121 39.6267 22.0249 39.3055 21.5533 39.0922L21.351 39.5393C21.7421 39.7162 22.0608 39.9802 22.3103 40.3348L22.7116 40.0525ZM23.168 41.7153C23.168 41.0393 23.0241 40.4744 22.7081 40.0476L22.3138 40.3397C22.5467 40.6543 22.6773 41.1038 22.6773 41.7153H23.168ZM22.6433 43.5078C23.0038 43.0594 23.168 42.4514 23.168 41.7153H22.6773C22.6773 42.3839 22.5278 42.8683 22.2609 43.2003L22.6433 43.5078ZM21.3664 44.4599C21.8949 44.2496 22.3247 43.9307 22.648 43.5017L22.2562 43.2064C21.9913 43.5578 21.6368 43.8241 21.185 44.004L21.3664 44.4599ZM19.7337 44.8279C20.3257 44.7872 20.8718 44.665 21.3696 44.4586L21.1817 44.0053C20.7385 44.1891 20.2453 44.3009 19.7001 44.3383L19.7337 44.8279Z" fill="black" mask="url(#path-4-inside-2_149_11345)"/>
</g>
<g opacity="0.12">
<mask id="path-6-inside-3_149_11345" fill="white">
<path fill-rule="evenodd" clip-rule="evenodd" d="M7.94733 3.27014C7.16367 3.27014 5.85521 3.56446 4.62239 3.89069C3.52279 4.18593 2.43032 4.50712 1.34591 4.85401C1.03631 4.95152 0.760652 5.13471 0.550844 5.38238C0.341035 5.63005 0.205655 5.93207 0.160371 6.25349C-0.51691 11.2143 1.05278 14.8903 2.95933 17.3228C3.16069 17.582 3.3714 17.8333 3.59099 18.0762V7.20488H7.72783C8.31881 7.20488 8.88661 7.26253 9.43123 7.37782C9.98745 7.49312 10.4741 7.68912 10.8913 7.96583C11.3085 8.23101 11.6387 8.59419 11.882 9.05537C12.137 9.50502 12.2644 10.07 12.2644 10.7502C12.2644 11.5227 12.1312 12.1453 11.8647 12.618C11.5981 13.0907 11.2389 13.4596 10.787 13.7248C10.3351 13.9785 9.80783 14.1514 9.20527 14.2436C8.61429 14.3359 7.99435 14.382 7.34543 14.382H5.78108V20.0167C5.79277 20.025 5.80448 20.0332 5.8162 20.0414C6.19274 20.3054 6.59091 20.5371 7.00647 20.7341C7.3256 20.8806 7.66602 21 7.94733 21C8.22865 21 8.56906 20.8806 8.8882 20.7341C9.30366 20.5369 9.70182 20.3052 10.0785 20.0414C11.1617 19.2832 12.1251 18.3668 12.9365 17.3228C14.8407 14.8903 16.4116 11.2143 15.7343 6.25349C15.6433 5.59039 15.1728 5.05258 14.5488 4.85401C13.4643 4.50712 12.3719 4.18592 11.2723 3.89069C10.0395 3.56446 8.72981 3.27014 7.94733 3.27014ZM8.07546 12.4796C7.73942 12.5027 7.41496 12.5142 7.10209 12.5142H5.78108V9.07266H7.34543C7.63513 9.07266 7.93641 9.08995 8.24928 9.12454C8.56215 9.15913 8.84605 9.23984 9.10098 9.36666C9.35591 9.48196 9.56449 9.6549 9.72672 9.88549C9.88895 10.1046 9.97006 10.4043 9.97006 10.7848C9.97006 11.1999 9.87736 11.5227 9.69196 11.7533C9.51814 11.9839 9.28639 12.1568 8.99669 12.2721C8.71858 12.3874 8.41151 12.4566 8.07546 12.4796Z"/>
</mask>
<path fill-rule="evenodd" clip-rule="evenodd" d="M7.94733 3.27014C7.16367 3.27014 5.85521 3.56446 4.62239 3.89069C3.52279 4.18593 2.43032 4.50712 1.34591 4.85401C1.03631 4.95152 0.760652 5.13471 0.550844 5.38238C0.341035 5.63005 0.205655 5.93207 0.160371 6.25349C-0.51691 11.2143 1.05278 14.8903 2.95933 17.3228C3.16069 17.582 3.3714 17.8333 3.59099 18.0762V7.20488H7.72783C8.31881 7.20488 8.88661 7.26253 9.43123 7.37782C9.98745 7.49312 10.4741 7.68912 10.8913 7.96583C11.3085 8.23101 11.6387 8.59419 11.882 9.05537C12.137 9.50502 12.2644 10.07 12.2644 10.7502C12.2644 11.5227 12.1312 12.1453 11.8647 12.618C11.5981 13.0907 11.2389 13.4596 10.787 13.7248C10.3351 13.9785 9.80783 14.1514 9.20527 14.2436C8.61429 14.3359 7.99435 14.382 7.34543 14.382H5.78108V20.0167C5.79277 20.025 5.80448 20.0332 5.8162 20.0414C6.19274 20.3054 6.59091 20.5371 7.00647 20.7341C7.3256 20.8806 7.66602 21 7.94733 21C8.22865 21 8.56906 20.8806 8.8882 20.7341C9.30366 20.5369 9.70182 20.3052 10.0785 20.0414C11.1617 19.2832 12.1251 18.3668 12.9365 17.3228C14.8407 14.8903 16.4116 11.2143 15.7343 6.25349C15.6433 5.59039 15.1728 5.05258 14.5488 4.85401C13.4643 4.50712 12.3719 4.18592 11.2723 3.89069C10.0395 3.56446 8.72981 3.27014 7.94733 3.27014ZM8.07546 12.4796C7.73942 12.5027 7.41496 12.5142 7.10209 12.5142H5.78108V9.07266H7.34543C7.63513 9.07266 7.93641 9.08995 8.24928 9.12454C8.56215 9.15913 8.84605 9.23984 9.10098 9.36666C9.35591 9.48196 9.56449 9.6549 9.72672 9.88549C9.88895 10.1046 9.97006 10.4043 9.97006 10.7848C9.97006 11.1999 9.87736 11.5227 9.69196 11.7533C9.51814 11.9839 9.28639 12.1568 8.99669 12.2721C8.71858 12.3874 8.41151 12.4566 8.07546 12.4796Z" fill="black"/>
<path d="M4.62239 3.89069L4.55962 3.6535L4.55877 3.65373L4.62239 3.89069ZM1.34591 4.85401L1.41961 5.08803L1.42066 5.0877L1.34591 4.85401ZM0.550844 5.38238L0.738054 5.54097L0.550844 5.38238ZM0.160371 6.25349L-0.0825856 6.21926L-0.0827276 6.2203L0.160371 6.25349ZM2.95933 17.3228L3.15307 17.1723L3.15244 17.1715L2.95933 17.3228ZM3.59099 18.0762L3.40897 18.2407L3.83635 18.7136V18.0762H3.59099ZM3.59099 7.20488V6.95953H3.34564V7.20488H3.59099ZM9.43123 7.37782L9.38042 7.61786L9.38143 7.61807L9.43123 7.37782ZM10.8913 7.96583L10.7556 8.17033L10.7597 8.17289L10.8913 7.96583ZM11.882 9.05537L11.6649 9.16992L11.6686 9.17637L11.882 9.05537ZM11.8647 12.618L12.0784 12.7385L11.8647 12.618ZM10.787 13.7248L10.9071 13.9388L10.9112 13.9364L10.787 13.7248ZM9.20527 14.2436L9.16815 14.0011L9.16744 14.0012L9.20527 14.2436ZM5.78108 14.382V14.1366H5.53573V14.382H5.78108ZM5.78108 20.0167H5.53573V20.1439L5.63968 20.2173L5.78108 20.0167ZM5.8162 20.0414L5.95705 19.8405L5.95696 19.8405L5.8162 20.0414ZM7.00647 20.7341L6.90138 20.9558L6.90407 20.957L7.00647 20.7341ZM8.8882 20.7341L8.9906 20.957L8.99337 20.9557L8.8882 20.7341ZM10.0785 20.0414L9.93776 19.8404L9.9377 19.8405L10.0785 20.0414ZM12.9365 17.3228L12.7433 17.1716L12.7428 17.1723L12.9365 17.3228ZM15.7343 6.25349L15.9774 6.2203L15.9774 6.22013L15.7343 6.25349ZM14.5488 4.85401L14.474 5.0877L14.4744 5.08781L14.5488 4.85401ZM11.2723 3.89069L11.3359 3.65372L11.335 3.6535L11.2723 3.89069ZM8.07546 12.4796L8.05867 12.2349H8.05867L8.07546 12.4796ZM5.78108 12.5142H5.53573V12.7596H5.78108V12.5142ZM5.78108 9.07266V8.82731H5.53573V9.07266H5.78108ZM8.24928 9.12454L8.22232 9.36841H8.22232L8.24928 9.12454ZM9.10098 9.36666L8.99162 9.58648L8.99988 9.59022L9.10098 9.36666ZM9.72672 9.88549L9.52599 10.0267L9.52955 10.0315L9.72672 9.88549ZM9.69196 11.7533L9.50065 11.5995L9.49603 11.6056L9.69196 11.7533ZM8.99669 12.2721L8.90596 12.0441L8.90273 12.0455L8.99669 12.2721ZM4.68515 4.12788C5.92367 3.80014 7.20103 3.5155 7.94733 3.5155V3.02479C7.12631 3.02479 5.78675 3.32877 4.55962 3.6535L4.68515 4.12788ZM1.42066 5.0877C2.50139 4.74199 3.59015 4.42189 4.68601 4.12765L4.55877 3.65373C3.45543 3.94997 2.35925 4.27226 1.27116 4.62032L1.42066 5.0877ZM0.738054 5.54097C0.917909 5.32866 1.15421 5.17162 1.41961 5.08803L1.2722 4.61999C0.918405 4.73142 0.603395 4.94076 0.363634 5.22379L0.738054 5.54097ZM0.403326 6.28772C0.442145 6.01219 0.558198 5.75328 0.738054 5.54097L0.363634 5.22379C0.123873 5.50681 -0.0308355 5.85196 -0.0825834 6.21926L0.403326 6.28772ZM3.15244 17.1715C1.28153 14.7844 -0.263738 11.1737 0.403471 6.28668L-0.0827276 6.2203C-0.770082 11.2549 0.824026 14.9962 2.76622 17.4742L3.15244 17.1715ZM3.77302 17.9117C3.5575 17.6732 3.35069 17.4266 3.15307 17.1723L2.76559 17.4734C2.97068 17.7373 3.18531 17.9933 3.40897 18.2407L3.77302 17.9117ZM3.83635 18.0762V7.20488H3.34564V18.0762H3.83635ZM3.59099 7.45023H7.72783V6.95953H3.59099V7.45023ZM7.72783 7.45023C8.30277 7.45023 8.85349 7.50631 9.38042 7.61786L9.48205 7.13779C8.91972 7.01875 8.33484 6.95953 7.72783 6.95953V7.45023ZM9.38143 7.61807C9.91112 7.72787 10.3678 7.91304 10.7557 8.17029L11.0269 7.76136C10.5804 7.46519 10.0638 7.25837 9.48103 7.13757L9.38143 7.61807ZM10.7597 8.17289C11.1388 8.41389 11.4405 8.74429 11.665 9.16987L12.099 8.94087C11.8369 8.44408 11.4781 8.04812 11.0229 7.75877L10.7597 8.17289ZM11.6686 9.17637C11.897 9.57926 12.0191 10.0994 12.0191 10.7502H12.5098C12.5098 10.0405 12.3769 9.43077 12.0955 8.93436L11.6686 9.17637ZM12.0191 10.7502C12.0191 11.4973 11.8898 12.0739 11.6509 12.4975L12.0784 12.7385C12.3726 12.2167 12.5098 11.5481 12.5098 10.7502H12.0191ZM11.6509 12.4975C11.4049 12.9339 11.076 13.2708 10.6628 13.5132L10.9112 13.9364C11.4018 13.6485 11.7914 13.2475 12.0784 12.7385L11.6509 12.4975ZM10.6669 13.5109C10.2448 13.7478 9.7466 13.9126 9.16815 14.0011L9.2424 14.4862C9.86907 14.3902 10.4254 14.2092 10.9071 13.9388L10.6669 13.5109ZM9.16744 14.0012C8.58998 14.0914 7.98274 14.1366 7.34543 14.1366V14.6274C8.00596 14.6274 8.63861 14.5804 9.24311 14.4861L9.16744 14.0012ZM7.34543 14.1366H5.78108V14.6274H7.34543V14.1366ZM5.53573 14.382V20.0167H6.02644V14.382H5.53573ZM5.95696 19.8405C5.94545 19.8324 5.93395 19.8243 5.92248 19.8162L5.63968 20.2173C5.6516 20.2257 5.66352 20.234 5.67544 20.2424L5.95696 19.8405ZM7.11155 20.5124C6.70848 20.3213 6.32228 20.0966 5.95705 19.8405L5.67535 20.2423C6.06321 20.5142 6.47335 20.7529 6.90138 20.9558L7.11155 20.5124ZM7.94733 20.7547C7.72256 20.7547 7.42336 20.6555 7.10886 20.5111L6.90407 20.957C7.22785 21.1057 7.60948 21.2454 7.94733 21.2454V20.7547ZM8.7858 20.5111C8.4713 20.6555 8.1721 20.7547 7.94733 20.7547V21.2454C8.28519 21.2454 8.66682 21.1057 8.99059 20.957L8.7858 20.5111ZM9.9377 19.8405C9.57232 20.0964 9.18606 20.3212 8.78302 20.5124L8.99337 20.9557C9.42126 20.7527 9.83132 20.5141 10.2192 20.2424L9.9377 19.8405ZM12.7428 17.1723C11.9464 18.1968 11.0009 19.0962 9.93776 19.8404L10.2192 20.2424C11.3225 19.4701 12.3037 18.5367 13.1302 17.4734L12.7428 17.1723ZM15.4912 6.28668C16.1584 11.1737 14.612 14.7844 12.7433 17.1716L13.1297 17.4741C15.0694 14.9962 16.6648 11.2549 15.9774 6.2203L15.4912 6.28668ZM14.4744 5.08781C15.0111 5.2586 15.4135 5.72044 15.4912 6.28685L15.9774 6.22013C15.8731 5.46034 15.3346 4.84657 14.6231 4.62021L14.4744 5.08781ZM11.2087 4.12765C12.3045 4.42188 13.3933 4.74198 14.474 5.0877L14.6235 4.62032C13.5354 4.27225 12.4392 3.94996 11.3359 3.65373L11.2087 4.12765ZM7.94733 3.5155C8.69246 3.5155 9.97102 3.80015 11.2095 4.12788L11.335 3.6535C10.1079 3.32877 8.76716 3.02479 7.94733 3.02479V3.5155ZM7.10209 12.7596C7.42097 12.7596 7.75104 12.7478 8.09226 12.7244L8.05867 12.2349C7.72779 12.2576 7.40895 12.2689 7.10209 12.2689V12.7596ZM5.78108 12.7596H7.10209V12.2689H5.78108V12.7596ZM5.53573 9.07266V12.5142H6.02644V9.07266H5.53573ZM7.34543 8.82731H5.78108V9.31801H7.34543V8.82731ZM8.27624 8.88067C7.95518 8.84518 7.64487 8.82731 7.34543 8.82731V9.31801C7.62539 9.31801 7.91764 9.33473 8.22232 9.36841L8.27624 8.88067ZM9.21026 9.14699C8.92695 9.00604 8.61475 8.9181 8.27624 8.88067L8.22232 9.36841C8.50955 9.40017 8.76515 9.47363 8.9917 9.58633L9.21026 9.14699ZM9.92739 9.74431C9.74013 9.47815 9.49729 9.27662 9.20209 9.14311L8.99988 9.59022C9.21453 9.6873 9.38885 9.83165 9.52605 10.0267L9.92739 9.74431ZM10.2154 10.7848C10.2154 10.372 10.1277 10.0146 9.92389 9.73947L9.52955 10.0315C9.65025 10.1945 9.72471 10.4366 9.72471 10.7848H10.2154ZM9.88317 11.907C10.1153 11.6182 10.2154 11.2336 10.2154 10.7848H9.72471C9.72471 11.1661 9.63937 11.4271 9.50075 11.5995L9.88317 11.907ZM9.08742 12.5001C9.41541 12.3695 9.68486 12.1703 9.88788 11.901L9.49603 11.6056C9.35142 11.7974 9.15736 11.9441 8.90596 12.0441L9.08742 12.5001ZM8.09226 12.7244C8.45172 12.6997 8.78524 12.6254 9.09065 12.4987L8.90273 12.0455C8.65192 12.1494 8.3713 12.2134 8.05867 12.2349L8.09226 12.7244Z" fill="black" mask="url(#path-6-inside-3_149_11345)"/>
</g>
</g>
<defs>
<clipPath id="clip0_149_11345">
<rect width="79" height="48" rx="8" fill="white"/>
</clipPath>
</defs>
</svg>
