<svg width="12" height="12" viewBox="0 0 12 12" fill="none" xmlns="http://www.w3.org/2000/svg">
<path fill-rule="evenodd" clip-rule="evenodd" d="M5.79192 0.404425C5.92774 0.364297 6.07226 0.364296 6.20808 0.404425L10.2369 1.59474C10.3929 1.64085 10.5 1.78416 10.5 1.94688V8.27697C10.5 8.37305 10.4825 8.46791 10.4408 8.55446C10.0289 9.40941 8.71463 11.0518 6.13201 11.5678C6.04543 11.5851 5.95456 11.585 5.86797 11.5678C3.26161 11.0501 1.94707 9.4716 1.54804 8.54293C1.51399 8.46369 1.5 8.37835 1.5 8.2921V1.94688C1.5 1.78416 1.60709 1.64085 1.76315 1.59474L5.79192 0.404425ZM8.29318 5.20141C8.49115 4.97045 8.4644 4.62274 8.23344 4.42478C8.00249 4.22681 7.65478 4.25356 7.45682 4.48452L5.65366 6.5882L4.94062 5.63749C4.75811 5.39414 4.41288 5.34482 4.16953 5.52734C3.92618 5.70985 3.87686 6.05508 4.05938 6.29843L5.07452 7.65195C5.34231 8.00901 5.87188 8.02626 6.16234 7.68739L8.29318 5.20141Z" fill="#3FCA33"/>
</svg>
