<svg width="244" height="87" viewBox="0 0 244 87" fill="none" xmlns="http://www.w3.org/2000/svg">
<g filter="url(#filter0_di_2001_1764)">
<path fill-rule="evenodd" clip-rule="evenodd" d="M148.129 15.0147L149.76 18.2467C150.713 20.1357 152.248 21.6686 154.138 22.6194L157.378 24.249L154.138 25.8785C152.248 26.8293 150.713 28.3622 149.76 30.2512L148.129 33.4832L146.498 30.2512C145.545 28.3622 144.01 26.8293 142.12 25.8785L138.88 24.249L142.12 22.6194C144.01 21.6686 145.545 20.1358 146.498 18.2467L148.129 15.0147Z" fill="#FFDB5D"/>
</g>
<g filter="url(#filter1_di_2001_1764)">
<path fill-rule="evenodd" clip-rule="evenodd" d="M228.25 62.0147L229.881 65.2471C230.834 67.1363 232.369 68.6694 234.26 69.6202L237.5 71.25L234.26 72.8798C232.369 73.8306 230.834 75.3637 229.881 77.2529L228.25 80.4853L226.619 77.2529C225.666 75.3637 224.131 73.8306 222.24 72.8798L219 71.25L222.24 69.6202C224.131 68.6694 225.666 67.1363 226.619 65.2471L228.25 62.0147Z" fill="url(#paint0_linear_2001_1764)"/>
</g>
<g opacity="0.1" filter="url(#filter2_d_2001_1764)">
<path fill-rule="evenodd" clip-rule="evenodd" d="M42.0078 20.008L42.8905 21.7574C43.4065 22.7799 44.2373 23.6096 45.2604 24.1242L47.0141 25.0063L45.2604 25.8884C44.2373 26.403 43.4065 27.2327 42.8905 28.2552L42.0078 30.0047L41.1251 28.2552C40.6091 27.2327 39.7784 26.403 38.7552 25.8884L37.0015 25.0063L38.7552 24.1242C39.7784 23.6096 40.6091 22.7799 41.1251 21.7574L42.0078 20.008Z" fill="url(#paint1_linear_2001_1764)"/>
</g>
<g opacity="0.1" filter="url(#filter3_di_2001_1764)">
<path fill-rule="evenodd" clip-rule="evenodd" d="M26.0078 66.008L26.8905 67.7574C27.4065 68.7799 28.2373 69.6096 29.2604 70.1242L31.0141 71.0063L29.2604 71.8884C28.2373 72.403 27.4065 73.2327 26.8905 74.2552L26.0078 76.0047L25.1251 74.2552C24.6091 73.2327 23.7784 72.403 22.7552 71.8884L21.0015 71.0063L22.7552 70.1242C23.7784 69.6096 24.6091 68.7799 25.1251 67.7574L26.0078 66.008Z" fill="url(#paint2_linear_2001_1764)"/>
</g>
<g opacity="0.1" filter="url(#filter4_di_2001_1764)">
<path fill-rule="evenodd" clip-rule="evenodd" d="M10.25 40.0068L10.9981 41.4893C11.4353 42.3558 12.1394 43.059 13.0065 43.4951L14.4926 44.2426L13.0065 44.9902C12.1394 45.4263 11.4353 46.1294 10.9981 46.996L10.25 48.4785L9.50193 46.996C9.06469 46.1294 8.36064 45.4263 7.49355 44.9902L6.00736 44.2426L7.49355 43.4951C8.36064 43.059 9.06469 42.3558 9.50193 41.4893L10.25 40.0068Z" fill="#FFDB5D"/>
</g>
<g filter="url(#filter5_di_2001_1764)">
<path fill-rule="evenodd" clip-rule="evenodd" d="M178.242 69.0068L178.99 70.4893C179.428 71.3558 180.132 72.059 180.999 72.4951L182.485 73.2426L180.999 73.9902C180.132 74.4263 179.428 75.1294 178.99 75.996L178.242 77.4785L177.494 75.996C177.057 75.1294 176.353 74.4263 175.486 73.9902L174 73.2426L175.486 72.4951C176.353 72.059 177.057 71.3558 177.494 70.4893L178.242 69.0068Z" fill="#FFDB5D"/>
</g>
<g opacity="0.5" filter="url(#filter6_di_2001_1764)">
<path fill-rule="evenodd" clip-rule="evenodd" d="M123.25 1.00676L123.998 2.48932C124.435 3.35585 125.139 4.059 126.006 4.49512L127.493 5.24264L126.006 5.99016C125.139 6.42628 124.435 7.12943 123.998 7.99597L123.25 9.47852L122.502 7.99597C122.065 7.12943 121.361 6.42628 120.494 5.99016L119.007 5.24264L120.494 4.49512C121.361 4.059 122.065 3.35585 122.502 2.48932L123.25 1.00676Z" fill="url(#paint3_linear_2001_1764)"/>
</g>
<g filter="url(#filter7_di_2001_1764)">
<path fill-rule="evenodd" clip-rule="evenodd" d="M191.008 44.008L191.891 45.7574C192.406 46.7799 193.237 47.6096 194.26 48.1242L196.014 49.0063L194.26 49.8884C193.237 50.403 192.406 51.2327 191.891 52.2552L191.008 54.0047L190.125 52.2552C189.609 51.2327 188.778 50.403 187.755 49.8884L186.002 49.0063L187.755 48.1242C188.778 47.6096 189.609 46.7799 190.125 45.7574L191.008 44.008Z" fill="url(#paint4_linear_2001_1764)"/>
</g>
<g opacity="0.2" filter="url(#filter8_di_2001_1764)">
<path fill-rule="evenodd" clip-rule="evenodd" d="M99.25 72.008L100.133 73.7574C100.649 74.7799 101.479 75.6096 102.503 76.1242L104.256 77.0063L102.503 77.8884C101.479 78.403 100.649 79.2327 100.133 80.2552L99.25 82.0047L98.3673 80.2552C97.8513 79.2327 97.0206 78.403 95.9974 77.8884L94.2437 77.0063L95.9974 76.1242C97.0206 75.6096 97.8513 74.7799 98.3673 73.7574L99.25 72.008Z" fill="#FFDB5D"/>
</g>
<g opacity="0.7" filter="url(#filter9_di_2001_1764)">
<path fill-rule="evenodd" clip-rule="evenodd" d="M141.129 57.0114L142.386 59.502C143.12 60.9578 144.303 62.1391 145.76 62.8718L148.257 64.1276L145.76 65.3835C144.303 66.1162 143.12 67.2974 142.386 68.7532L141.129 71.2439L139.872 68.7532C139.138 67.2974 137.955 66.1162 136.498 65.3835L134.001 64.1276L136.498 62.8718C137.955 62.1391 139.138 60.9578 139.872 59.5021L141.129 57.0114Z" fill="url(#paint5_linear_2001_1764)"/>
</g>
<g opacity="0.2" filter="url(#filter10_di_2001_1764)">
<path fill-rule="evenodd" clip-rule="evenodd" d="M105.715 26.0091L106.722 28.0056C107.311 29.1725 108.259 30.1194 109.427 30.7068L111.428 31.7134L109.427 32.7201C108.259 33.3074 107.311 34.2543 106.722 35.4212L105.715 37.4177L104.707 35.4212C104.119 34.2543 103.171 33.3074 102.003 32.7201L100.001 31.7134L102.003 30.7068C103.171 30.1194 104.119 29.1725 104.707 28.0056L105.715 26.0091Z" fill="#FFDB5D"/>
</g>
<g opacity="0.2" filter="url(#filter11_di_2001_1764)">
<path fill-rule="evenodd" clip-rule="evenodd" d="M75.25 44.0125L76.6314 46.7503C77.4389 48.3505 78.739 49.6489 80.3402 50.4543L83.0847 51.8347L80.3402 53.2152C78.739 54.0205 77.4389 55.319 76.6314 56.9192L75.25 59.657L73.8686 56.9192C73.0611 55.319 71.761 54.0205 70.1598 53.2152L67.4153 51.8347L70.1598 50.4543C71.761 49.6489 73.0611 48.3505 73.8686 46.7503L75.25 44.0125Z" fill="url(#paint6_linear_2001_1764)"/>
</g>
<g opacity="0.2" filter="url(#filter12_di_2001_1764)">
<path fill-rule="evenodd" clip-rule="evenodd" d="M75.25 4.01248L76.6314 6.75027C77.4389 8.35047 78.739 9.64895 80.3402 10.4543L83.0847 11.8347L80.3402 13.2152C78.739 14.0205 77.4389 15.319 76.6314 16.9192L75.25 19.657L73.8686 16.9192C73.0611 15.319 71.761 14.0205 70.1598 13.2152L67.4153 11.8347L70.1598 10.4543C71.761 9.64895 73.0611 8.35047 73.8686 6.75027L75.25 4.01248Z" fill="#FFDB5D"/>
</g>
<defs>
<filter id="filter0_di_2001_1764" x="132.88" y="9.01474" width="30.4979" height="30.4684" filterUnits="userSpaceOnUse" color-interpolation-filters="sRGB">
<feFlood flood-opacity="0" result="BackgroundImageFix"/>
<feColorMatrix in="SourceAlpha" type="matrix" values="0 0 0 0 0 0 0 0 0 0 0 0 0 0 0 0 0 0 127 0" result="hardAlpha"/>
<feOffset/>
<feGaussianBlur stdDeviation="3"/>
<feComposite in2="hardAlpha" operator="out"/>
<feColorMatrix type="matrix" values="0 0 0 0 1 0 0 0 0 0.419608 0 0 0 0 0 0 0 0 0.5 0"/>
<feBlend mode="normal" in2="BackgroundImageFix" result="effect1_dropShadow_2001_1764"/>
<feBlend mode="normal" in="SourceGraphic" in2="effect1_dropShadow_2001_1764" result="shape"/>
<feColorMatrix in="SourceAlpha" type="matrix" values="0 0 0 0 0 0 0 0 0 0 0 0 0 0 0 0 0 0 127 0" result="hardAlpha"/>
<feOffset dy="3"/>
<feGaussianBlur stdDeviation="1"/>
<feComposite in2="hardAlpha" operator="arithmetic" k2="-1" k3="1"/>
<feColorMatrix type="matrix" values="0 0 0 0 1 0 0 0 0 1 0 0 0 0 1 0 0 0 0.25 0"/>
<feBlend mode="normal" in2="shape" result="effect2_innerShadow_2001_1764"/>
</filter>
<filter id="filter1_di_2001_1764" x="213" y="56.0147" width="30.5" height="30.4705" filterUnits="userSpaceOnUse" color-interpolation-filters="sRGB">
<feFlood flood-opacity="0" result="BackgroundImageFix"/>
<feColorMatrix in="SourceAlpha" type="matrix" values="0 0 0 0 0 0 0 0 0 0 0 0 0 0 0 0 0 0 127 0" result="hardAlpha"/>
<feOffset/>
<feGaussianBlur stdDeviation="3"/>
<feComposite in2="hardAlpha" operator="out"/>
<feColorMatrix type="matrix" values="0 0 0 0 1 0 0 0 0 0.419608 0 0 0 0 0 0 0 0 0.5 0"/>
<feBlend mode="normal" in2="BackgroundImageFix" result="effect1_dropShadow_2001_1764"/>
<feBlend mode="normal" in="SourceGraphic" in2="effect1_dropShadow_2001_1764" result="shape"/>
<feColorMatrix in="SourceAlpha" type="matrix" values="0 0 0 0 0 0 0 0 0 0 0 0 0 0 0 0 0 0 127 0" result="hardAlpha"/>
<feOffset dy="3"/>
<feGaussianBlur stdDeviation="1"/>
<feComposite in2="hardAlpha" operator="arithmetic" k2="-1" k3="1"/>
<feColorMatrix type="matrix" values="0 0 0 0 1 0 0 0 0 1 0 0 0 0 1 0 0 0 0.25 0"/>
<feBlend mode="normal" in2="shape" result="effect2_innerShadow_2001_1764"/>
</filter>
<filter id="filter2_d_2001_1764" x="31.0015" y="14.008" width="22.0126" height="21.9967" filterUnits="userSpaceOnUse" color-interpolation-filters="sRGB">
<feFlood flood-opacity="0" result="BackgroundImageFix"/>
<feColorMatrix in="SourceAlpha" type="matrix" values="0 0 0 0 0 0 0 0 0 0 0 0 0 0 0 0 0 0 127 0" result="hardAlpha"/>
<feOffset/>
<feGaussianBlur stdDeviation="3"/>
<feComposite in2="hardAlpha" operator="out"/>
<feColorMatrix type="matrix" values="0 0 0 0 1 0 0 0 0 0.419608 0 0 0 0 0 0 0 0 0.5 0"/>
<feBlend mode="normal" in2="BackgroundImageFix" result="effect1_dropShadow_2001_1764"/>
<feBlend mode="normal" in="SourceGraphic" in2="effect1_dropShadow_2001_1764" result="shape"/>
</filter>
<filter id="filter3_di_2001_1764" x="15.0015" y="60.008" width="22.0126" height="21.9967" filterUnits="userSpaceOnUse" color-interpolation-filters="sRGB">
<feFlood flood-opacity="0" result="BackgroundImageFix"/>
<feColorMatrix in="SourceAlpha" type="matrix" values="0 0 0 0 0 0 0 0 0 0 0 0 0 0 0 0 0 0 127 0" result="hardAlpha"/>
<feOffset/>
<feGaussianBlur stdDeviation="3"/>
<feComposite in2="hardAlpha" operator="out"/>
<feColorMatrix type="matrix" values="0 0 0 0 1 0 0 0 0 0.419608 0 0 0 0 0 0 0 0 0.5 0"/>
<feBlend mode="normal" in2="BackgroundImageFix" result="effect1_dropShadow_2001_1764"/>
<feBlend mode="normal" in="SourceGraphic" in2="effect1_dropShadow_2001_1764" result="shape"/>
<feColorMatrix in="SourceAlpha" type="matrix" values="0 0 0 0 0 0 0 0 0 0 0 0 0 0 0 0 0 0 127 0" result="hardAlpha"/>
<feOffset dy="3"/>
<feGaussianBlur stdDeviation="1"/>
<feComposite in2="hardAlpha" operator="arithmetic" k2="-1" k3="1"/>
<feColorMatrix type="matrix" values="0 0 0 0 1 0 0 0 0 1 0 0 0 0 1 0 0 0 0.25 0"/>
<feBlend mode="normal" in2="shape" result="effect2_innerShadow_2001_1764"/>
</filter>
<filter id="filter4_di_2001_1764" x="0.00736237" y="34.0068" width="20.4853" height="20.4717" filterUnits="userSpaceOnUse" color-interpolation-filters="sRGB">
<feFlood flood-opacity="0" result="BackgroundImageFix"/>
<feColorMatrix in="SourceAlpha" type="matrix" values="0 0 0 0 0 0 0 0 0 0 0 0 0 0 0 0 0 0 127 0" result="hardAlpha"/>
<feOffset/>
<feGaussianBlur stdDeviation="3"/>
<feComposite in2="hardAlpha" operator="out"/>
<feColorMatrix type="matrix" values="0 0 0 0 1 0 0 0 0 0.419608 0 0 0 0 0 0 0 0 0.5 0"/>
<feBlend mode="normal" in2="BackgroundImageFix" result="effect1_dropShadow_2001_1764"/>
<feBlend mode="normal" in="SourceGraphic" in2="effect1_dropShadow_2001_1764" result="shape"/>
<feColorMatrix in="SourceAlpha" type="matrix" values="0 0 0 0 0 0 0 0 0 0 0 0 0 0 0 0 0 0 127 0" result="hardAlpha"/>
<feOffset dy="3"/>
<feGaussianBlur stdDeviation="1"/>
<feComposite in2="hardAlpha" operator="arithmetic" k2="-1" k3="1"/>
<feColorMatrix type="matrix" values="0 0 0 0 1 0 0 0 0 1 0 0 0 0 1 0 0 0 0.25 0"/>
<feBlend mode="normal" in2="shape" result="effect2_innerShadow_2001_1764"/>
</filter>
<filter id="filter5_di_2001_1764" x="168" y="63.0068" width="20.4853" height="20.4718" filterUnits="userSpaceOnUse" color-interpolation-filters="sRGB">
<feFlood flood-opacity="0" result="BackgroundImageFix"/>
<feColorMatrix in="SourceAlpha" type="matrix" values="0 0 0 0 0 0 0 0 0 0 0 0 0 0 0 0 0 0 127 0" result="hardAlpha"/>
<feOffset/>
<feGaussianBlur stdDeviation="3"/>
<feComposite in2="hardAlpha" operator="out"/>
<feColorMatrix type="matrix" values="0 0 0 0 1 0 0 0 0 0.419608 0 0 0 0 0 0 0 0 0.5 0"/>
<feBlend mode="normal" in2="BackgroundImageFix" result="effect1_dropShadow_2001_1764"/>
<feBlend mode="normal" in="SourceGraphic" in2="effect1_dropShadow_2001_1764" result="shape"/>
<feColorMatrix in="SourceAlpha" type="matrix" values="0 0 0 0 0 0 0 0 0 0 0 0 0 0 0 0 0 0 127 0" result="hardAlpha"/>
<feOffset dy="3"/>
<feGaussianBlur stdDeviation="1"/>
<feComposite in2="hardAlpha" operator="arithmetic" k2="-1" k3="1"/>
<feColorMatrix type="matrix" values="0 0 0 0 1 0 0 0 0 1 0 0 0 0 1 0 0 0 0.25 0"/>
<feBlend mode="normal" in2="shape" result="effect2_innerShadow_2001_1764"/>
</filter>
<filter id="filter6_di_2001_1764" x="113.007" y="-4.99323" width="20.4853" height="20.4717" filterUnits="userSpaceOnUse" color-interpolation-filters="sRGB">
<feFlood flood-opacity="0" result="BackgroundImageFix"/>
<feColorMatrix in="SourceAlpha" type="matrix" values="0 0 0 0 0 0 0 0 0 0 0 0 0 0 0 0 0 0 127 0" result="hardAlpha"/>
<feOffset/>
<feGaussianBlur stdDeviation="3"/>
<feComposite in2="hardAlpha" operator="out"/>
<feColorMatrix type="matrix" values="0 0 0 0 1 0 0 0 0 0.419608 0 0 0 0 0 0 0 0 0.5 0"/>
<feBlend mode="normal" in2="BackgroundImageFix" result="effect1_dropShadow_2001_1764"/>
<feBlend mode="normal" in="SourceGraphic" in2="effect1_dropShadow_2001_1764" result="shape"/>
<feColorMatrix in="SourceAlpha" type="matrix" values="0 0 0 0 0 0 0 0 0 0 0 0 0 0 0 0 0 0 127 0" result="hardAlpha"/>
<feOffset dy="3"/>
<feGaussianBlur stdDeviation="1"/>
<feComposite in2="hardAlpha" operator="arithmetic" k2="-1" k3="1"/>
<feColorMatrix type="matrix" values="0 0 0 0 1 0 0 0 0 1 0 0 0 0 1 0 0 0 0.25 0"/>
<feBlend mode="normal" in2="shape" result="effect2_innerShadow_2001_1764"/>
</filter>
<filter id="filter7_di_2001_1764" x="180.002" y="38.008" width="22.0126" height="21.9967" filterUnits="userSpaceOnUse" color-interpolation-filters="sRGB">
<feFlood flood-opacity="0" result="BackgroundImageFix"/>
<feColorMatrix in="SourceAlpha" type="matrix" values="0 0 0 0 0 0 0 0 0 0 0 0 0 0 0 0 0 0 127 0" result="hardAlpha"/>
<feOffset/>
<feGaussianBlur stdDeviation="3"/>
<feComposite in2="hardAlpha" operator="out"/>
<feColorMatrix type="matrix" values="0 0 0 0 1 0 0 0 0 0.419608 0 0 0 0 0 0 0 0 0.5 0"/>
<feBlend mode="normal" in2="BackgroundImageFix" result="effect1_dropShadow_2001_1764"/>
<feBlend mode="normal" in="SourceGraphic" in2="effect1_dropShadow_2001_1764" result="shape"/>
<feColorMatrix in="SourceAlpha" type="matrix" values="0 0 0 0 0 0 0 0 0 0 0 0 0 0 0 0 0 0 127 0" result="hardAlpha"/>
<feOffset dy="3"/>
<feGaussianBlur stdDeviation="1"/>
<feComposite in2="hardAlpha" operator="arithmetic" k2="-1" k3="1"/>
<feColorMatrix type="matrix" values="0 0 0 0 1 0 0 0 0 1 0 0 0 0 1 0 0 0 0.25 0"/>
<feBlend mode="normal" in2="shape" result="effect2_innerShadow_2001_1764"/>
</filter>
<filter id="filter8_di_2001_1764" x="88.2437" y="66.008" width="22.0126" height="21.9967" filterUnits="userSpaceOnUse" color-interpolation-filters="sRGB">
<feFlood flood-opacity="0" result="BackgroundImageFix"/>
<feColorMatrix in="SourceAlpha" type="matrix" values="0 0 0 0 0 0 0 0 0 0 0 0 0 0 0 0 0 0 127 0" result="hardAlpha"/>
<feOffset/>
<feGaussianBlur stdDeviation="3"/>
<feComposite in2="hardAlpha" operator="out"/>
<feColorMatrix type="matrix" values="0 0 0 0 1 0 0 0 0 0.419608 0 0 0 0 0 0 0 0 0.5 0"/>
<feBlend mode="normal" in2="BackgroundImageFix" result="effect1_dropShadow_2001_1764"/>
<feBlend mode="normal" in="SourceGraphic" in2="effect1_dropShadow_2001_1764" result="shape"/>
<feColorMatrix in="SourceAlpha" type="matrix" values="0 0 0 0 0 0 0 0 0 0 0 0 0 0 0 0 0 0 127 0" result="hardAlpha"/>
<feOffset dy="3"/>
<feGaussianBlur stdDeviation="1"/>
<feComposite in2="hardAlpha" operator="arithmetic" k2="-1" k3="1"/>
<feColorMatrix type="matrix" values="0 0 0 0 1 0 0 0 0 1 0 0 0 0 1 0 0 0 0.25 0"/>
<feBlend mode="normal" in2="shape" result="effect2_innerShadow_2001_1764"/>
</filter>
<filter id="filter9_di_2001_1764" x="128.001" y="51.0114" width="26.2553" height="26.2326" filterUnits="userSpaceOnUse" color-interpolation-filters="sRGB">
<feFlood flood-opacity="0" result="BackgroundImageFix"/>
<feColorMatrix in="SourceAlpha" type="matrix" values="0 0 0 0 0 0 0 0 0 0 0 0 0 0 0 0 0 0 127 0" result="hardAlpha"/>
<feOffset/>
<feGaussianBlur stdDeviation="3"/>
<feComposite in2="hardAlpha" operator="out"/>
<feColorMatrix type="matrix" values="0 0 0 0 1 0 0 0 0 0.419608 0 0 0 0 0 0 0 0 0.5 0"/>
<feBlend mode="normal" in2="BackgroundImageFix" result="effect1_dropShadow_2001_1764"/>
<feBlend mode="normal" in="SourceGraphic" in2="effect1_dropShadow_2001_1764" result="shape"/>
<feColorMatrix in="SourceAlpha" type="matrix" values="0 0 0 0 0 0 0 0 0 0 0 0 0 0 0 0 0 0 127 0" result="hardAlpha"/>
<feOffset dy="3"/>
<feGaussianBlur stdDeviation="1"/>
<feComposite in2="hardAlpha" operator="arithmetic" k2="-1" k3="1"/>
<feColorMatrix type="matrix" values="0 0 0 0 1 0 0 0 0 1 0 0 0 0 1 0 0 0 0.25 0"/>
<feBlend mode="normal" in2="shape" result="effect2_innerShadow_2001_1764"/>
</filter>
<filter id="filter10_di_2001_1764" x="94.0014" y="20.0091" width="23.4268" height="23.4086" filterUnits="userSpaceOnUse" color-interpolation-filters="sRGB">
<feFlood flood-opacity="0" result="BackgroundImageFix"/>
<feColorMatrix in="SourceAlpha" type="matrix" values="0 0 0 0 0 0 0 0 0 0 0 0 0 0 0 0 0 0 127 0" result="hardAlpha"/>
<feOffset/>
<feGaussianBlur stdDeviation="3"/>
<feComposite in2="hardAlpha" operator="out"/>
<feColorMatrix type="matrix" values="0 0 0 0 1 0 0 0 0 0.419608 0 0 0 0 0 0 0 0 0.5 0"/>
<feBlend mode="normal" in2="BackgroundImageFix" result="effect1_dropShadow_2001_1764"/>
<feBlend mode="normal" in="SourceGraphic" in2="effect1_dropShadow_2001_1764" result="shape"/>
<feColorMatrix in="SourceAlpha" type="matrix" values="0 0 0 0 0 0 0 0 0 0 0 0 0 0 0 0 0 0 127 0" result="hardAlpha"/>
<feOffset dy="3"/>
<feGaussianBlur stdDeviation="1"/>
<feComposite in2="hardAlpha" operator="arithmetic" k2="-1" k3="1"/>
<feColorMatrix type="matrix" values="0 0 0 0 1 0 0 0 0 1 0 0 0 0 1 0 0 0 0.25 0"/>
<feBlend mode="normal" in2="shape" result="effect2_innerShadow_2001_1764"/>
</filter>
<filter id="filter11_di_2001_1764" x="61.4153" y="38.0125" width="27.6695" height="27.6445" filterUnits="userSpaceOnUse" color-interpolation-filters="sRGB">
<feFlood flood-opacity="0" result="BackgroundImageFix"/>
<feColorMatrix in="SourceAlpha" type="matrix" values="0 0 0 0 0 0 0 0 0 0 0 0 0 0 0 0 0 0 127 0" result="hardAlpha"/>
<feOffset/>
<feGaussianBlur stdDeviation="3"/>
<feComposite in2="hardAlpha" operator="out"/>
<feColorMatrix type="matrix" values="0 0 0 0 1 0 0 0 0 0.419608 0 0 0 0 0 0 0 0 0.5 0"/>
<feBlend mode="normal" in2="BackgroundImageFix" result="effect1_dropShadow_2001_1764"/>
<feBlend mode="normal" in="SourceGraphic" in2="effect1_dropShadow_2001_1764" result="shape"/>
<feColorMatrix in="SourceAlpha" type="matrix" values="0 0 0 0 0 0 0 0 0 0 0 0 0 0 0 0 0 0 127 0" result="hardAlpha"/>
<feOffset dy="3"/>
<feGaussianBlur stdDeviation="1"/>
<feComposite in2="hardAlpha" operator="arithmetic" k2="-1" k3="1"/>
<feColorMatrix type="matrix" values="0 0 0 0 1 0 0 0 0 1 0 0 0 0 1 0 0 0 0.25 0"/>
<feBlend mode="normal" in2="shape" result="effect2_innerShadow_2001_1764"/>
</filter>
<filter id="filter12_di_2001_1764" x="61.4153" y="-1.98752" width="27.6695" height="27.6445" filterUnits="userSpaceOnUse" color-interpolation-filters="sRGB">
<feFlood flood-opacity="0" result="BackgroundImageFix"/>
<feColorMatrix in="SourceAlpha" type="matrix" values="0 0 0 0 0 0 0 0 0 0 0 0 0 0 0 0 0 0 127 0" result="hardAlpha"/>
<feOffset/>
<feGaussianBlur stdDeviation="3"/>
<feComposite in2="hardAlpha" operator="out"/>
<feColorMatrix type="matrix" values="0 0 0 0 1 0 0 0 0 0.419608 0 0 0 0 0 0 0 0 0.5 0"/>
<feBlend mode="normal" in2="BackgroundImageFix" result="effect1_dropShadow_2001_1764"/>
<feBlend mode="normal" in="SourceGraphic" in2="effect1_dropShadow_2001_1764" result="shape"/>
<feColorMatrix in="SourceAlpha" type="matrix" values="0 0 0 0 0 0 0 0 0 0 0 0 0 0 0 0 0 0 127 0" result="hardAlpha"/>
<feOffset dy="3"/>
<feGaussianBlur stdDeviation="1"/>
<feComposite in2="hardAlpha" operator="arithmetic" k2="-1" k3="1"/>
<feColorMatrix type="matrix" values="0 0 0 0 1 0 0 0 0 1 0 0 0 0 1 0 0 0 0.25 0"/>
<feBlend mode="normal" in2="shape" result="effect2_innerShadow_2001_1764"/>
</filter>
<linearGradient id="paint0_linear_2001_1764" x1="226.503" y1="63.7472" x2="235.753" y2="72.9972" gradientUnits="userSpaceOnUse">
<stop stop-color="#FF6B00"/>
<stop offset="1" stop-color="#FFA500"/>
</linearGradient>
<linearGradient id="paint1_linear_2001_1764" x1="41.0622" y1="20.9456" x2="46.0685" y2="25.952" gradientUnits="userSpaceOnUse">
<stop stop-color="#FF6B00"/>
<stop offset="1" stop-color="#FFA500"/>
</linearGradient>
<linearGradient id="paint2_linear_2001_1764" x1="25.0622" y1="66.9456" x2="30.0685" y2="71.952" gradientUnits="userSpaceOnUse">
<stop stop-color="#FF6B00"/>
<stop offset="1" stop-color="#FFA500"/>
</linearGradient>
<linearGradient id="paint3_linear_2001_1764" x1="122.449" y1="1.80139" x2="126.691" y2="6.04403" gradientUnits="userSpaceOnUse">
<stop stop-color="#FF6B00"/>
<stop offset="1" stop-color="#FFA500"/>
</linearGradient>
<linearGradient id="paint4_linear_2001_1764" x1="190.062" y1="44.9456" x2="195.068" y2="49.952" gradientUnits="userSpaceOnUse">
<stop stop-color="#FF6B00"/>
<stop offset="1" stop-color="#FFA500"/>
</linearGradient>
<linearGradient id="paint5_linear_2001_1764" x1="139.783" y1="58.3463" x2="146.91" y2="65.474" gradientUnits="userSpaceOnUse">
<stop stop-color="#FF6B00"/>
<stop offset="1" stop-color="#FFA500"/>
</linearGradient>
<linearGradient id="paint6_linear_2001_1764" x1="73.7701" y1="45.4799" x2="81.6048" y2="53.3146" gradientUnits="userSpaceOnUse">
<stop stop-color="#FF6B00"/>
<stop offset="1" stop-color="#FFA500"/>
</linearGradient>
</defs>
</svg>
